G04 ================== begin FILE IDENTIFICATION RECORD ==================*
G04 Layout Name:  E:/Projects/XRBB/SC-STM/BoardV2/SC-STM.brd*
G04 Film Name:    BOTTOM*
G04 File Format:  Gerber RS274X*
G04 File Origin:  Cadence Allegro 17.2-S026*
G04 Origin Date:  Mon Jul 22 20:40:11 2019*
G04 *
G04 Layer:  BOARD GEOMETRY/OUTLINE*
G04 Layer:  ETCH/BOTTOM*
G04 Layer:  PIN/BOTTOM*
G04 Layer:  VIA CLASS/BOTTOM*
G04 *
G04 Offset:    (0.0000 0.0000)*
G04 Mirror:    No*
G04 Mode:      Positive*
G04 Rotation:  0*
G04 FullContactRelief:  No*
G04 UndefLineWidth:     0.1270*
G04 ================== end FILE IDENTIFICATION RECORD ====================*
%FSLAX25Y25*MOMM*%
%IR0*IPPOS*OFA0.00000B0.00000*MIA0B0*SFA1.00000B1.00000*%
%ADD17C,.4*%
%ADD14C,.5001*%
%ADD20R,.8999X1.*%
%ADD10R,1.X.8999*%
%ADD11O,2.X1.05*%
%ADD16R,1.5001X1.*%
%ADD15C,1.5001*%
%ADD19R,1.5001X1.5001*%
%ADD13R,1.5999X2.*%
%ADD18R,1.5001X3.2799*%
%ADD12O,1.5999X1.05*%
%ADD21C,.1*%
%ADD22C,.127*%
%ADD23C,.254*%
%ADD24C,.381*%
%ADD26C,.907*%
%ADD25C,1.7546*%
G75*
%LPD*%
G75*
G36*
G01X10Y50010D02*
Y2949990D01*
X6499990D01*
Y50010D01*
X10D01*
G37*
%LPC*%
G75*
G36*
G01X6012280Y1044000D02*
Y1194000D01*
G02X6025000Y1206720I12715J5D01*
G01X6175000D01*
G02X6187720Y1194000I5J-12715D01*
G01Y1044000D01*
G02X6175000Y1031280I-12715J-5D01*
G01X6025000D01*
G02X6012280Y1044000I-5J12715D01*
G37*
G36*
G01X3197280Y1465000D02*
Y1555000D01*
G02X3210000Y1567720I12720J0D01*
G01X3310000D01*
G02X3322720Y1555000I0J-12720D01*
G01Y1465000D01*
G02X3310000Y1452280I-12720J0D01*
G01X3210000D01*
G02X3197280Y1465000I0J12720D01*
G37*
G36*
G01Y1305000D02*
Y1395000D01*
G02X3210000Y1407720I12720J0D01*
G01X3310000D01*
G02X3322720Y1395000I0J-12720D01*
G01Y1305000D01*
G02X3310000Y1292280I-12720J0D01*
G01X3210000D01*
G02X3197280Y1305000I0J12720D01*
G37*
G36*
G01X2502600Y903940D02*
Y1003940D01*
G02X2515320Y1016660I12720J0D01*
G01X2605320D01*
G02X2618040Y1003940I0J-12720D01*
G01Y903940D01*
G02X2605320Y891220I-12720J0D01*
G01X2515320D01*
G02X2502600Y903940I0J12720D01*
G37*
G36*
G01X582500Y1794780D02*
X527500D01*
G02Y1925220I5J65220D01*
G01X582500D01*
G02Y1794780I-5J-65220D01*
G37*
G36*
G01X877440Y1062520D02*
Y1162520D01*
G02X890160Y1175240I12720J0D01*
G01X1040160D01*
G02X1052880Y1162520I0J-12720D01*
G01Y1062520D01*
G02X1040160Y1049800I-12720J0D01*
G01X890160D01*
G02X877440Y1062520I0J12720D01*
G37*
G36*
G01X582500Y1074780D02*
X527500D01*
G02Y1205220I5J65220D01*
G01X582500D01*
G02Y1074780I-5J-65220D01*
G37*
G36*
G01X197800Y2507700D02*
Y2597700D01*
G02X210520Y2610420I12720J0D01*
G01X310520D01*
G02X323240Y2597700I0J-12720D01*
G01Y2507700D01*
G02X310520Y2494980I-12720J0D01*
G01X210520D01*
G02X197800Y2507700I0J12720D01*
G37*
G36*
G01X162500Y1925220D02*
X257500D01*
G02Y1794780I0J-65220D01*
G01X162500D01*
G02Y1925220I0J65220D01*
G37*
G36*
G01Y1205220D02*
X257500D01*
G02Y1074780I0J-65220D01*
G01X162500D01*
G02Y1205220I0J65220D01*
G37*
G36*
G01X197800Y452840D02*
Y542840D01*
G02X210520Y555560I12720J0D01*
G01X310520D01*
G02X323240Y542840I0J-12720D01*
G01Y452840D01*
G02X310520Y440120I-12720J0D01*
G01X210520D01*
G02X197800Y452840I0J12720D01*
G37*
G36*
G01X189240Y664540D02*
Y864540D01*
G02X201960Y877260I12720J0D01*
G01X361960D01*
G02X374680Y864540I0J-12720D01*
G01Y664540D01*
G02X361960Y651820I-12720J0D01*
G01X201960D01*
G02X189240Y664540I0J12720D01*
G37*
G36*
G01X5090470Y2288520D02*
X4473220D01*
G02Y2339360I-20600J25420D01*
G01X5069410D01*
X5331600Y2601550D01*
X5330020Y2604800D01*
G02X5367600Y2565650I78979J38200D01*
G01X5090470Y2288520D01*
G37*
G36*
G01X2014590Y2298680D02*
X1931550Y2215640D01*
G02X1895600Y2251590I-77350J-41400D01*
G01X1993530Y2349520D01*
X2418450D01*
X2497190Y2270780D01*
X2532060D01*
Y2290360D01*
G02X2544780Y2303080I12720J0D01*
G01X2644780D01*
G02X2657500Y2290360I0J-12720D01*
G01Y2200360D01*
G02X2644780Y2187640I-12720J0D01*
G01X2544780D01*
G02X2532060Y2200360I0J12720D01*
G01Y2219940D01*
X2476130D01*
X2397390Y2298680D01*
X2014590D01*
G37*
G36*
G01X2012050Y2042140D02*
X1931550Y1961640D01*
G02X1895600Y1997590I-77350J-41400D01*
G01X1990990Y2092980D01*
X2020510D01*
Y2098230D01*
X2020500Y2098400D01*
G02X2020480Y2099240I12698J723D01*
G01Y2249240D01*
G02X2033200Y2261960I12715J5D01*
G01X2183200D01*
G02X2195920Y2249240I5J-12715D01*
G01Y2099240D01*
G02X2195900Y2098400I-12718J-117D01*
G01X2195890Y2098230D01*
Y2092980D01*
X2532060D01*
Y2112560D01*
G02X2544780Y2125280I12720J0D01*
G01X2644780D01*
G02X2657500Y2112560I0J-12720D01*
G01Y2022560D01*
G02X2644780Y2009840I-12720J0D01*
G01X2544780D01*
G02X2532060Y2022560I0J12720D01*
G01Y2042140D01*
X2012050D01*
G37*
G36*
G01X3502720Y1305000D02*
G02X3490000Y1292280I-12720J0D01*
G01X3390000D01*
G02X3377280Y1305000I0J12720D01*
G01Y1395000D01*
G02X3390000Y1407720I12720J0D01*
G01X3414580D01*
Y1452280D01*
X3390000D01*
G02X3377280Y1465000I0J12720D01*
G01Y1555000D01*
G02X3390000Y1567720I12720J0D01*
G01X3414580D01*
Y1612280D01*
X3390000D01*
G02X3377280Y1625000I0J12720D01*
G01Y1715000D01*
G02X3390000Y1727720I12720J0D01*
G01X3490000D01*
G02X3502720Y1715000I0J-12720D01*
G01Y1705530D01*
G03X3511390Y1701940I5080J3D01*
G01X3529050Y1719600D01*
X3967200D01*
G02Y1668760I20600J-25420D01*
G01X3550110D01*
X3525930Y1644580D01*
X3502720D01*
Y1625000D01*
G02X3490000Y1612280I-12720J0D01*
G01X3465420D01*
Y1567720D01*
X3490000D01*
G02X3502720Y1555000I0J-12720D01*
G01Y1465000D01*
G02X3490000Y1452280I-12720J0D01*
G01X3465420D01*
Y1407720D01*
X3490000D01*
G02X3502720Y1395000I0J-12720D01*
G01Y1305000D01*
G37*
G36*
G01X2555220Y1846950D02*
X2639490Y1931220D01*
X2639740Y1932860D01*
G02X2677080Y1895520I32340J-5000D01*
G01X2675440Y1895270D01*
X2606060Y1825890D01*
Y1331240D01*
G02X2555220I-25420J-20600D01*
G01Y1846950D01*
G37*
G36*
G01X3790410Y1159360D02*
X3944600Y1313550D01*
Y1503400D01*
G02X3995440I25420J20600D01*
G01Y1292490D01*
X3811470Y1108520D01*
X2788220D01*
Y1083940D01*
G02X2775500Y1071220I-12720J0D01*
G01X2685500D01*
G02X2672780Y1083940I0J12720D01*
G01Y1108520D01*
X2618040D01*
Y1083940D01*
G02X2605320Y1071220I-12720J0D01*
G01X2515320D01*
G02X2502600Y1083940I0J12720D01*
G01Y1107000D01*
X2426400D01*
G02Y1157840I-20600J25420D01*
G01X2477870D01*
X2479390Y1159360D01*
X2502600D01*
Y1183940D01*
G02X2515320Y1196660I12720J0D01*
G01X2605320D01*
G02X2618040Y1183940I0J-12720D01*
G01Y1159360D01*
X2672780D01*
Y1183940D01*
G02X2685500Y1196660I12720J0D01*
G01X2775500D01*
G02X2788220Y1183940I0J-12720D01*
G01Y1159360D01*
X3790410D01*
G37*
G36*
G01X2692950Y833280D02*
X2641170Y781500D01*
X2640920Y779860D01*
G02X2603580Y817200I-32340J5000D01*
G01X2605220Y817450D01*
X2642110Y854340D01*
Y896500D01*
X2672780Y927170D01*
Y1003940D01*
G02X2685500Y1016660I12720J0D01*
G01X2775500D01*
G02X2788220Y1003940I0J-12720D01*
G01Y903940D01*
G02X2775500Y891220I-12720J0D01*
G01X2708730D01*
X2692950Y875440D01*
Y833280D01*
G37*
G36*
G01X3045600Y398450D02*
X2895430Y548620D01*
X2613290D01*
X2252960Y908950D01*
Y1200110D01*
X2431210Y1378360D01*
X2431460Y1380000D01*
G02X2468800Y1342660I32340J-5000D01*
G01X2467160Y1342410D01*
X2303800Y1179050D01*
Y930010D01*
X2634350Y599460D01*
X2916490D01*
X3081550Y434400D01*
X3084800Y435980D01*
G02X3044020Y395200I38200J-78980D01*
G01X3045600Y398450D01*
G37*
G36*
G01X2791600D02*
X2710010Y480040D01*
X2577730D01*
X2164060Y893710D01*
Y1229790D01*
X2362630Y1428360D01*
X2362880Y1430000D01*
G02X2400220Y1392660I32340J-5000D01*
G01X2398580Y1392410D01*
X2214900Y1208730D01*
Y914770D01*
X2598790Y530880D01*
X2731070D01*
X2827550Y434400D01*
X2830800Y435980D01*
G02X2790020Y395200I38200J-78980D01*
G01X2791600Y398450D01*
G37*
G36*
G01X2537600D02*
X2080240Y855810D01*
Y1300850D01*
X2257750Y1478360D01*
X2258000Y1480000D01*
G02X2295340Y1442660I32340J-5000D01*
G01X2293700Y1442410D01*
X2131080Y1279790D01*
Y876870D01*
X2573550Y434400D01*
X2576800Y435980D01*
G02X2536020Y395200I38200J-78980D01*
G01X2537600Y398450D01*
G37*
G36*
G01X3144540Y1272820D02*
G02X3093700I-25420J-20600D01*
G01Y1391550D01*
X2992100Y1493150D01*
Y1915530D01*
X3225780Y2149210D01*
Y2217050D01*
X3208670Y2234160D01*
X3202470Y2227950D01*
X3204150Y2224670D01*
G02X3154400Y2184380I-29147J-14870D01*
G01X2932550D01*
X2837500Y2089330D01*
Y2022560D01*
G02X2824780Y2009840I-12720J0D01*
G01X2724780D01*
G02X2712060Y2022560I0J12720D01*
G01Y2112560D01*
G02X2724780Y2125280I12720J0D01*
G01X2801550D01*
X2911490Y2235220D01*
X3154400D01*
G02X3189870Y2238950I20604J-25419D01*
G01X3193150Y2237270D01*
X3199360Y2243470D01*
X3184790Y2258040D01*
X2898810D01*
X2860710Y2219940D01*
X2837500D01*
Y2200360D01*
G02X2824780Y2187640I-12720J0D01*
G01X2724780D01*
G02X2712060Y2200360I0J12720D01*
G01Y2290360D01*
G02X2724780Y2303080I12720J0D01*
G01X2824780D01*
G02X2837500Y2290360I0J-12720D01*
G01Y2280890D01*
G03X2846170Y2277300I5080J3D01*
G01X2877750Y2308880D01*
X3205850D01*
X3276620Y2238110D01*
Y2128150D01*
X3042940Y1894470D01*
Y1514210D01*
X3053690Y1503460D01*
X3058510Y1508270D01*
X3058730Y1509990D01*
G02X3065760Y1526380I32448J-4215D01*
G01Y1763130D01*
X3151770Y1849140D01*
X3654690D01*
X3759180Y1953630D01*
Y2179690D01*
X3829950Y2250460D01*
X5583290D01*
X5649780Y2183970D01*
X5651420Y2183720D01*
G02X5614080Y2146380I-5000J-32340D01*
G01X5613830Y2148020D01*
X5562230Y2199620D01*
X4327860D01*
G03X4320710Y2182240I-1J-10160D01*
G02X4277080Y2133580I-23037J-23234D01*
G01X3899270D01*
X3865900Y2100210D01*
Y1904630D01*
X3711310Y1750040D01*
X3284240D01*
Y1727720D01*
X3310000D01*
G02X3322720Y1715000I0J-12720D01*
G01Y1625000D01*
G02X3310000Y1612280I-12720J0D01*
G01X3210000D01*
G02X3197280Y1625000I0J12720D01*
G01Y1715000D01*
G02X3210000Y1727720I12720J0D01*
G01X3233400D01*
Y1754860D01*
G02X3227560Y1785140I25418J20606D01*
G03X3217860Y1798300I-9705J3002D01*
G01X3172830D01*
X3116600Y1742070D01*
Y1526380D01*
G02X3102470Y1475070I-25420J-20600D01*
G03X3098800Y1458350I3511J-9534D01*
G01X3144540Y1412610D01*
Y1272820D01*
G37*
G36*
G01X4097550Y434400D02*
X4100800Y435980D01*
G02X4060020Y395200I38200J-78980D01*
G01X4061600Y398450D01*
X3967310Y492740D01*
X3873130D01*
X3710570Y655300D01*
X3302280D01*
G02X3269400Y711050I-20600J25422D01*
G03X3273610Y726700I-3812J9417D01*
G02X3286100Y776630I25850J20061D01*
G03X3290310Y791670I-4151J9271D01*
G02X3337840Y835680I26927J18591D01*
G01X3757120D01*
G03X3764310Y853020I3J10160D01*
G01X3756950Y860380D01*
X3395600D01*
G02Y911220I-20600J25420D01*
G01X3412880D01*
Y919410D01*
X3410110Y920820D01*
G02X3400170Y971270I14889J29138D01*
G03X3392460Y988040I-7715J6611D01*
G01X3378570D01*
X3241410Y850880D01*
X2954300D01*
G02Y901720I-20600J25420D01*
G01X3220350D01*
X3357510Y1038880D01*
X3833230D01*
X4021190Y850920D01*
X6245490D01*
X6375380Y980810D01*
Y1569670D01*
X6141400Y1803650D01*
G02X6178980Y1842800I-41399J77350D01*
G01X6177400Y1839550D01*
X6426220Y1590730D01*
Y959750D01*
X6266550Y800080D01*
X4000130D01*
X3812170Y988040D01*
X3438350D01*
Y979980D01*
X3440960Y978530D01*
G02X3445600Y975380I-15991J-28548D01*
G01X3800210D01*
X4005950Y769640D01*
X4778310D01*
X5113550Y434400D01*
X5116800Y435980D01*
G02X5076020Y395200I38200J-78980D01*
G01X5077600Y398450D01*
X4757250Y718800D01*
X4599680D01*
G03X4592490Y701460I-3J-10160D01*
G01X4859550Y434400D01*
X4862800Y435980D01*
G02X4822020Y395200I38200J-78980D01*
G01X4823600Y398450D01*
X4559130Y662920D01*
X4401560D01*
G03X4394370Y645580I-3J-10160D01*
G01X4605550Y434400D01*
X4608800Y435980D01*
G02X4568020Y395200I38200J-78980D01*
G01X4569600Y398450D01*
X4355930Y612120D01*
X4198360D01*
G03X4191170Y594780I-3J-10160D01*
G01X4351550Y434400D01*
X4354800Y435980D01*
G02X4314020Y395200I38200J-78980D01*
G01X4315600Y398450D01*
X4160350Y553700D01*
X4002780D01*
G03X3995590Y536360I-3J-10160D01*
G01X4097550Y434400D01*
G37*
G36*
G01X1168400Y398450D02*
X1169980Y395200D01*
G02X1129200Y435980I-78980J-38200D01*
G01X1132450Y434400D01*
X1429590Y731540D01*
X1455050D01*
X1724640Y1001130D01*
Y1460870D01*
X1830500Y1566730D01*
X1830750Y1568370D01*
G02X1831240Y1570860I32326J-5068D01*
G03X1821350Y1583350I-9889J2330D01*
G01X1793330D01*
X1682880Y1472910D01*
Y1177120D01*
G02X1670160Y1164400I-12720J0D01*
G01X1552360D01*
X1120730Y732770D01*
X694680D01*
Y664540D01*
G02X681960Y651820I-12720J0D01*
G01X554170D01*
X512660Y610310D01*
X492660D01*
X472290Y589940D01*
Y555560D01*
X490520D01*
G02X503240Y542840I0J-12720D01*
G01Y452840D01*
G02X490520Y440120I-12720J0D01*
G01X390520D01*
G02X377800Y452840I0J12720D01*
G01Y542840D01*
G02X390520Y555560I12720J0D01*
G01X408750D01*
Y616260D01*
X466340Y673850D01*
X486340D01*
X509240Y696750D01*
Y864540D01*
G02X521960Y877260I12720J0D01*
G01X658730D01*
X706100Y924630D01*
Y992860D01*
G02X756940I25420J20600D01*
G01Y903570D01*
X694680Y841310D01*
Y796310D01*
X1094410D01*
X1507440Y1209330D01*
Y1309350D01*
X1052880D01*
Y1291120D01*
G02X1040160Y1278400I-12720J0D01*
G01X890160D01*
G02X877440Y1291120I0J12720D01*
G01Y1391120D01*
G02X890160Y1403840I12720J0D01*
G01X1040160D01*
G02X1052880Y1391120I0J-12720D01*
G01Y1372890D01*
X1507440D01*
Y1505120D01*
G02X1520160Y1517840I12720J0D01*
G01X1637960D01*
X1767010Y1646890D01*
X1896680D01*
X2076430Y1826640D01*
Y1838460D01*
G02X2139970I31770J81780D01*
G01Y1800320D01*
X1923000Y1583350D01*
X1904830D01*
G03X1894940Y1570860I-1J-10160D01*
G02X1895810Y1563830I-31848J-7510D01*
G03X1900820Y1558820I5076J66D01*
G02X1932870Y1529840I-458J-32719D01*
G03X1950140Y1523810I10092J1158D01*
G01X1960040Y1533710D01*
X1960290Y1535350D01*
G02X2025350Y1530810I32339J-5000D01*
G03X2030360Y1525800I5076J66D01*
G02X2061470Y1501690I-459J-32719D01*
G03X2078450Y1497180I9800J2676D01*
G01X2085770Y1504500D01*
X2086020Y1506140D01*
G02X2149180Y1490140I32340J-5000D01*
G01X2148100Y1487110D01*
X2153960Y1481250D01*
X2159430Y1486720D01*
X2159680Y1488360D01*
G02X2197020Y1451020I32340J-5000D01*
G01X2195380Y1450770D01*
X2059960Y1315350D01*
Y693990D01*
X2319550Y434400D01*
X2322800Y435980D01*
G02X2282020Y395200I38200J-78980D01*
G01X2283600Y398450D01*
X2016340Y665710D01*
G03X1999000Y658520I-7180J-7187D01*
G01Y500950D01*
X2065550Y434400D01*
X2068800Y435980D01*
G02X2028020Y395200I38200J-78980D01*
G01X2029600Y398450D01*
X1948160Y479890D01*
Y832710D01*
G03X1930820Y839900I-10160J3D01*
G01X1838340Y747420D01*
Y526150D01*
X1878420Y486070D01*
Y440970D01*
G02X1827580I-25420J-83970D01*
G01Y465010D01*
X1786570Y506020D01*
X1683140Y402590D01*
X1680540D01*
X1676400Y398450D01*
X1677980Y395200D01*
G02X1637200Y435980I-78980J-38200D01*
G01X1640450Y434400D01*
X1659480Y453430D01*
X1662080D01*
X1734800Y526150D01*
Y790310D01*
X1841480Y896990D01*
Y1415150D01*
X1915470Y1489140D01*
X1909920Y1494690D01*
X1907220Y1494110D01*
G02X1905360Y1493760I-6978J31968D01*
G01X1903720Y1493510D01*
X1878780Y1468570D01*
X1878770D01*
X1828180Y1417980D01*
Y958240D01*
X1370420Y500480D01*
Y440970D01*
G02X1319580I-25420J-83970D01*
G01Y521540D01*
X1461400Y663360D01*
G03X1454210Y680700I-7187J7180D01*
G01X1450650D01*
X1168400Y398450D01*
G37*
G36*
G01X4625320Y1000600D02*
Y1290690D01*
X4769750Y1435120D01*
X5559780D01*
G02Y1384280I20600J-25420D01*
G01X4790810D01*
X4676160Y1269630D01*
Y1000600D01*
G02X4625320I-25420J-20600D01*
G37*
G36*
G01X168920Y2140280D02*
Y2340280D01*
G02X181640Y2353000I12720J0D01*
G01X341640D01*
G02X354360Y2340280I0J-12720D01*
G01Y2140280D01*
G02X341640Y2127560I-12720J0D01*
G01X181640D01*
G02X168920Y2140280I0J12720D01*
G37*
G36*
G01X503240Y2539910D02*
X613410Y2429740D01*
Y2353000D01*
X661640D01*
G02X674360Y2340280I0J-12720D01*
G01Y2140280D01*
G02X661640Y2127560I-12720J0D01*
G01X632050D01*
G03X624870Y2110220I7J-10160D01*
G01X627040Y2108050D01*
X668650D01*
X669800Y2108180D01*
G02X669790Y2044380I7282J-31901D01*
G01X669230Y2044510D01*
X600720D01*
X549870Y2095360D01*
Y2127560D01*
X501640D01*
G02X488920Y2140280I0J12720D01*
G01Y2340280D01*
G02X501640Y2353000I12720J0D01*
G01X549870D01*
Y2403420D01*
X458310Y2494980D01*
X390520D01*
G02X377800Y2507700I0J12720D01*
G01Y2597700D01*
G02X390520Y2610420I12720J0D01*
G01X408750D01*
Y2642620D01*
X604600Y2838470D01*
X940460D01*
X1055590Y2723340D01*
X1058690Y2724570D01*
G02X1122770Y2561220I32310J-81569D01*
G01Y1682400D01*
X1094400Y1654030D01*
Y1629020D01*
X1052880Y1587510D01*
Y1519720D01*
G02X1040160Y1507000I-12720J0D01*
G01X890160D01*
G02X877440Y1519720I0J12720D01*
G01Y1619720D01*
G02X890160Y1632440I12720J0D01*
G01X1007960D01*
X1030860Y1655340D01*
Y1680350D01*
X1059230Y1708720D01*
Y2561220D01*
G02X1009430Y2675300I31769J81778D01*
G01X1010660Y2678410D01*
X914140Y2774930D01*
X630920D01*
X475080Y2619090D01*
G03X478670Y2610420I3594J-3590D01*
G01X490520D01*
G02X503240Y2597700I0J-12720D01*
G01Y2539910D01*
G37*
G54D26*
X425000Y1700000D03*
Y1300000D03*
G54D25*
X837000Y357000D03*
Y2643000D03*
X1600200Y1920240D03*
X1853000Y2643000D03*
X1599000D03*
X1345000D03*
X1600200Y2174240D03*
X2615000Y2643000D03*
X2361000D03*
X2107000D03*
X3377000Y357000D03*
Y2643000D03*
X3123000D03*
X2869000D03*
X3885000Y357000D03*
X3631000D03*
X4139000Y2643000D03*
X3885000D03*
X3631000D03*
X4901000D03*
X4647000D03*
X4393000D03*
X5663000Y357000D03*
X5409000D03*
X5663000Y2643000D03*
X5155000D03*
X6100000Y1627000D03*
Y1373000D03*
%LPD*%
G75*
G54D10*
X440520Y497840D03*
X260520D03*
X440520Y2552700D03*
X260520D03*
X2594780Y2245360D03*
X2774780D03*
X2594780Y2067560D03*
X2774780D03*
X3440000Y1350000D03*
X3260000D03*
X3440000Y1510000D03*
X3260000D03*
Y1670000D03*
X3440000D03*
G54D11*
X210000Y1140000D03*
Y1860000D03*
G54D20*
X2560320Y1133940D03*
Y953940D03*
X2730500Y1133940D03*
Y953940D03*
G54D21*
G01X300000Y0D02*
X6200000D01*
G03X6500000Y300000I0J300000D01*
G01Y2700000D01*
G03X6200000Y3000000I-300000J0D01*
G01X300000D01*
G03X0Y2700000I0J-300000D01*
G01Y300000D01*
G03X300000Y0I300000J0D01*
G54D12*
X555000Y1140000D03*
Y1860000D03*
G54D22*
G01X260520Y435040D02*
Y497840D01*
G01X210000Y1069700D02*
Y1140000D01*
G01X260520Y497840D02*
Y560640D01*
G01X192720Y497840D02*
X260520D01*
G01D02*
X328320D01*
G01X281960Y646740D02*
Y764540D01*
G01D02*
Y882340D01*
G01X184160Y764540D02*
X281960D01*
G01D02*
X379760D01*
G01X457200Y1140000D02*
X555000D01*
G01X210000D02*
Y1210300D01*
G01X92200Y1140000D02*
X210000D01*
G01D02*
X327800D01*
G01X457200Y1860000D02*
X555000D01*
G01X210000Y1789700D02*
Y1860000D01*
G01D02*
Y1930300D01*
G01X92200Y1860000D02*
X210000D01*
G01D02*
X327800D01*
G01X261640Y2122480D02*
Y2240280D01*
G01D02*
Y2358080D01*
G01X163840Y2240280D02*
X261640D01*
G01D02*
X359440D01*
G01X260520Y2489900D02*
Y2552700D01*
G01D02*
Y2615500D01*
G01X192720Y2552700D02*
X260520D01*
G01D02*
X328320D01*
G01X837000Y264190D02*
Y357000D01*
G01D02*
Y449810D01*
G01X744190Y357000D02*
X837000D01*
G01D02*
X929810D01*
G01X965160Y1044720D02*
Y1112520D01*
G01X555000Y1069700D02*
Y1140000D01*
G01X965160Y1112520D02*
Y1180320D01*
G01X872350Y1112520D02*
X965160D01*
G01D02*
X1057970D01*
G01X555000Y1140000D02*
Y1210300D01*
G01Y1140000D02*
X652800D01*
G01X555000Y1789700D02*
Y1860000D01*
G01D02*
Y1930300D01*
G01Y1860000D02*
X652800D01*
G01X837000Y2550190D02*
Y2643000D01*
G01D02*
Y2735810D01*
G01X744190Y2643000D02*
X837000D01*
G01D02*
X929810D01*
G01X1600200Y2081430D02*
Y2174240D01*
G01D02*
Y2267050D01*
G01X1507390Y2174240D02*
X1600200D01*
G01D02*
X1693010D01*
G01X1600200Y1827430D02*
Y1920240D01*
G01D02*
Y2013050D01*
G01X1507390Y1920240D02*
X1600200D01*
G01D02*
X1693010D01*
G01X1599000Y2550190D02*
Y2643000D01*
G01D02*
Y2735810D01*
G01X1506190Y2643000D02*
X1599000D01*
G01D02*
X1691810D01*
G01X2560320Y886140D02*
Y953940D01*
G01D02*
Y1021740D01*
G01X2497520Y953940D02*
X2560320D01*
G01D02*
X2623120D01*
G01X3260000Y1510000D02*
Y1572800D01*
G01X3192200Y1510000D02*
X3260000D01*
G01D02*
X3327800D01*
G01X3260000Y1287200D02*
Y1350000D01*
G01X3192200D02*
X3260000D01*
G01D02*
X3327800D01*
G01X5155000Y2550190D02*
Y2643000D01*
G01D02*
Y2735810D01*
G01X5062190Y2643000D02*
X5155000D01*
G01D02*
X5247810D01*
G01X5663000Y264190D02*
Y357000D01*
G01D02*
Y449810D01*
G01X5570190Y357000D02*
X5663000D01*
G01D02*
X5755810D01*
G01X5663000Y2550190D02*
Y2643000D01*
G01D02*
Y2735810D01*
G01X5570190Y2643000D02*
X5663000D01*
G01D02*
X5755810D01*
G01X6100000Y1280190D02*
Y1373000D01*
G01D02*
Y1465810D01*
G01X6007190Y1373000D02*
X6100000D01*
G01D02*
X6192810D01*
G54D13*
X281960Y764540D03*
X261640Y2240280D03*
X601960Y764540D03*
X581640Y2240280D03*
G54D23*
G01X1091000Y357000D02*
X1440120Y706120D01*
X1465580D01*
X1750060Y990600D01*
Y1450340D01*
X1863090Y1563370D01*
G01X731520Y1013460D02*
Y914100D01*
X601960Y784540D01*
Y764540D01*
G01X1345000Y357000D02*
Y511010D01*
X1802760Y968770D01*
Y1428510D01*
X1868240Y1493990D01*
X1868250D01*
X1900360Y1526100D01*
G01X1599000Y357000D02*
X1670010Y428010D01*
X1672610D01*
X1760220Y515620D01*
Y779780D01*
X1866900Y886460D01*
Y1404620D01*
X1992630Y1530350D01*
G01X2107000Y357000D02*
X1973580Y490420D01*
Y1356360D01*
X2118360Y1501140D01*
G01X2361000Y357000D02*
X2034540Y683460D01*
Y1325880D01*
X2192020Y1483360D01*
G01X1853000Y357000D02*
Y475540D01*
X1812920Y515620D01*
Y757950D01*
X1919600Y864630D01*
Y1382790D01*
X1997780Y1460970D01*
X1997790D01*
X2029900Y1493080D01*
G01X2615000Y357000D02*
X2105660Y866340D01*
Y1290320D01*
X2290340Y1475000D01*
G01X2869000Y357000D02*
X2720540Y505460D01*
X2588260D01*
X2189480Y904240D01*
Y1219260D01*
X2395220Y1425000D01*
G01X3123000Y357000D02*
X2905960Y574040D01*
X2623820D01*
X2278380Y919480D01*
Y1189580D01*
X2463800Y1375000D01*
G01X2594780Y2067560D02*
X2001520D01*
X1854200Y1920240D01*
G01Y2174240D02*
X2004060Y2324100D01*
X2407920D01*
X2486660Y2245360D01*
X2594780D01*
G01X2608580Y784860D02*
X2667530Y843810D01*
Y885970D01*
X2730500Y948940D01*
Y953940D01*
G01X2580640Y1310640D02*
Y1836420D01*
X2672080Y1927860D01*
G01X2405800Y1132420D02*
X2488400D01*
X2489920Y1133940D01*
X2560320D01*
G01D02*
X2730500D01*
G01X3970020Y1524000D02*
Y1303020D01*
X3800940Y1133940D01*
X2730500D01*
G01X2774780Y2245360D02*
X2850180D01*
X2888280Y2283460D01*
X3195320D01*
X3251200Y2227580D01*
Y2138680D01*
X3017520Y1905000D01*
Y1503680D01*
X3119120Y1402080D01*
Y1252220D01*
G01X3175000Y2209800D02*
X2922020D01*
X2779780Y2067560D01*
X2774780D01*
G01X4139000Y357000D02*
X3977840Y518160D01*
X3883660D01*
X3721100Y680720D01*
X3281680D01*
G01X4393000Y357000D02*
X4170880Y579120D01*
X3906520D01*
X3738880Y746760D01*
X3299460D01*
G01X4647000Y357000D02*
X4366460Y637540D01*
X3934460D01*
X3761740Y810260D01*
X3317240D01*
G01X4901000Y357000D02*
X4569660Y688340D01*
X3964940D01*
X3767480Y885800D01*
X3375000D01*
G01X5155000Y357000D02*
X4767780Y744220D01*
X3995420D01*
X3789680Y949960D01*
X3425000D01*
G01X6100000Y1881000D02*
X6400800Y1580200D01*
Y970280D01*
X6256020Y825500D01*
X4010660D01*
X3822700Y1013460D01*
X3368040D01*
X3230880Y876300D01*
X2933700D01*
G01X3258820Y1775460D02*
Y1671180D01*
X3260000Y1670000D01*
G01Y1350000D02*
Y1510000D01*
G01X5646420Y2151380D02*
X5572760Y2225040D01*
X3840480D01*
X3784600Y2169160D01*
Y1943100D01*
X3665220Y1823720D01*
X3162300D01*
X3091180Y1752600D01*
Y1505780D01*
G01X3987800Y1694180D02*
X3539580D01*
X3515400Y1670000D01*
X3440000D01*
G01D02*
Y1510000D01*
G01D02*
Y1350000D01*
G01X4297680Y2159000D02*
X3888740D01*
X3840480Y2110740D01*
Y1915160D01*
X3700780Y1775460D01*
X3258820D01*
G01X5580380Y1409700D02*
X4780280D01*
X4650740Y1280160D01*
Y980000D01*
G01X4452620Y2313940D02*
X5079940D01*
X5409000Y2643000D01*
G54D14*
X425000Y1700000D03*
Y1300000D03*
G54D24*
G01X440520Y497840D02*
Y603100D01*
X479500Y642080D01*
X499500D01*
X601960Y744540D01*
Y764540D01*
G01X1091000Y2643000D02*
X927300Y2806700D01*
X617760D01*
X440520Y2629460D01*
Y2552700D01*
G01X581640Y2240280D02*
Y2416580D01*
X445520Y2552700D01*
X440520D01*
G01X601960Y764540D02*
X1107570D01*
X1595160Y1252130D01*
Y1341120D01*
G01D02*
X965160D01*
G01X1091000Y2643000D02*
Y1695560D01*
X1062630Y1667190D01*
Y1642180D01*
X990170Y1569720D01*
X965160D01*
G01X677080Y2076280D02*
X613880D01*
X581640Y2108520D01*
Y2240280D01*
G01X2108200Y1920240D02*
Y1813480D01*
X1909840Y1615120D01*
X1780170D01*
X1595160Y1430110D01*
Y1341120D01*
G54D15*
X1091000Y357000D03*
X837000D03*
X1091000Y2643000D03*
X837000D03*
X1599000Y357000D03*
X1345000D03*
X1600200Y1920240D03*
Y2174240D03*
X1599000Y2643000D03*
X1345000D03*
X2361000Y357000D03*
X2107000D03*
X1853000D03*
X1854200Y1920240D03*
Y2174240D03*
X2108200Y1920240D03*
X2361000Y2643000D03*
X2107000D03*
X1853000D03*
X2869000Y357000D03*
X2615000D03*
X2869000Y2643000D03*
X2615000D03*
X3377000Y357000D03*
X3123000D03*
X3377000Y2643000D03*
X3123000D03*
X4139000Y357000D03*
X3885000D03*
X3631000D03*
X4139000Y2643000D03*
X3885000D03*
X3631000D03*
X4647000Y357000D03*
X4393000D03*
X4647000Y2643000D03*
X4393000D03*
X5409000Y357000D03*
X5155000D03*
X4901000D03*
X5409000Y2643000D03*
X5155000D03*
X4901000D03*
X5663000Y357000D03*
Y2643000D03*
X6100000Y1627000D03*
Y1373000D03*
Y1881000D03*
G54D16*
X965160Y1112520D03*
Y1569720D03*
Y1341120D03*
G54D17*
X731520Y1013460D03*
X677080Y2076280D03*
X2118360Y1501140D03*
X2192020Y1483360D03*
X2290340Y1475000D03*
X1863090Y1563370D03*
X1900360Y1526100D03*
X1992630Y1530350D03*
X2029900Y1493080D03*
X2608580Y784860D03*
X2933700Y876300D03*
X2580640Y1310640D03*
X2395220Y1425000D03*
X2463800Y1375000D03*
X2405800Y1132420D03*
X2672080Y1927860D03*
X3281680Y680720D03*
X3299460Y746760D03*
X3317240Y810260D03*
X3375000Y885800D03*
X3425000Y949960D03*
X3091180Y1505780D03*
X3119120Y1252220D03*
X3258820Y1775460D03*
X3175000Y2209800D03*
X3977640Y1600200D03*
X4043680Y1137920D03*
X3970020Y1524000D03*
X3987800Y1694180D03*
X4107180Y1945640D03*
X4650740Y980000D03*
X4315460Y1310640D03*
Y1127760D03*
X4577080Y1135380D03*
X4297680Y2159000D03*
X4452620Y2313940D03*
X4772660Y1600200D03*
Y1780540D03*
X4775200Y1935480D03*
X5466080Y1605280D03*
X5580380Y1409700D03*
X5455920Y1945640D03*
X5646420Y2151380D03*
G54D18*
X1595160Y1341120D03*
G54D19*
X2108200Y2174240D03*
X6100000Y1119000D03*
M02*
