G04 ================== begin FILE IDENTIFICATION RECORD ==================*
G04 Layout Name:  E:/Projects/XRBB/SC-STM/BoardV2/SC-STM.brd*
G04 Film Name:    DRILL*
G04 File Format:  Gerber RS274X*
G04 File Origin:  Cadence Allegro 17.2-S026*
G04 Origin Date:  Mon Jul 22 20:40:11 2019*
G04 *
G04 Layer:  MANUFACTURING/NCDRILL_FIGURE*
G04 Layer:  MANUFACTURING/NCLEGEND-1-2*
G04 Layer:  BOARD GEOMETRY/OUTLINE*
G04 *
G04 Offset:    (0.0000 0.0000)*
G04 Mirror:    No*
G04 Mode:      Positive*
G04 Rotation:  0*
G04 FullContactRelief:  No*
G04 UndefLineWidth:     0.1270*
G04 ================== end FILE IDENTIFICATION RECORD ====================*
%FSLAX25Y25*MOMM*%
%IR0*IPPOS*OFA0.00000B0.00000*MIA0B0*SFA1.00000B1.00000*%
%AMMACRO13*
1,1,.127,.5,0.0*
20,1,.127,.5,0.0,.492404,-.086824,0.0*
1,1,.127,.492404,-.086824*
20,1,.127,.492404,-.086824,.469846,-.17101,0.0*
1,1,.127,.469846,-.17101*
20,1,.127,.469846,-.17101,.433013,-.25,0.0*
1,1,.127,.433013,-.25*
20,1,.127,.433013,-.25,.383022,-.321394,0.0*
1,1,.127,.383022,-.321394*
20,1,.127,.383022,-.321394,.321394,-.383022,0.0*
1,1,.127,.321394,-.383022*
20,1,.127,.321394,-.383022,.25,-.433013,0.0*
1,1,.127,.25,-.433013*
20,1,.127,.25,-.433013,.17101,-.469846,0.0*
1,1,.127,.17101,-.469846*
20,1,.127,.17101,-.469846,.086824,-.492404,0.0*
1,1,.127,.086824,-.492404*
20,1,.127,.086824,-.492404,0.0,-.5,0.0*
1,1,.127,0.0,-.5*
20,1,.127,0.0,-.5,-.086824,-.492404,0.0*
1,1,.127,-.086824,-.492404*
20,1,.127,-.086824,-.492404,-.17101,-.469846,0.0*
1,1,.127,-.17101,-.469846*
20,1,.127,-.17101,-.469846,-.25,-.433013,0.0*
1,1,.127,-.25,-.433013*
20,1,.127,-.25,-.433013,-.321394,-.383022,0.0*
1,1,.127,-.321394,-.383022*
20,1,.127,-.321394,-.383022,-.383022,-.321394,0.0*
1,1,.127,-.383022,-.321394*
20,1,.127,-.383022,-.321394,-.433013,-.25,0.0*
1,1,.127,-.433013,-.25*
20,1,.127,-.433013,-.25,-.469846,-.17101,0.0*
1,1,.127,-.469846,-.17101*
20,1,.127,-.469846,-.17101,-.492404,-.086824,0.0*
1,1,.127,-.492404,-.086824*
20,1,.127,-.492404,-.086824,-.5,0.0,0.0*
1,1,.127,-.5,0.0*
20,1,.127,-.5,0.0,-.492404,.086824,0.0*
1,1,.127,-.492404,.086824*
20,1,.127,-.492404,.086824,-.469846,.17101,0.0*
1,1,.127,-.469846,.17101*
20,1,.127,-.469846,.17101,-.433013,.25,0.0*
1,1,.127,-.433013,.25*
20,1,.127,-.433013,.25,-.383022,.321394,0.0*
1,1,.127,-.383022,.321394*
20,1,.127,-.383022,.321394,-.321394,.383022,0.0*
1,1,.127,-.321394,.383022*
20,1,.127,-.321394,.383022,-.25,.433013,0.0*
1,1,.127,-.25,.433013*
20,1,.127,-.25,.433013,-.17101,.469846,0.0*
1,1,.127,-.17101,.469846*
20,1,.127,-.17101,.469846,-.086824,.492404,0.0*
1,1,.127,-.086824,.492404*
20,1,.127,-.086824,.492404,0.0,.5,0.0*
1,1,.127,0.0,.5*
20,1,.127,0.0,.5,.086824,.492404,0.0*
1,1,.127,.086824,.492404*
20,1,.127,.086824,.492404,.17101,.469846,0.0*
1,1,.127,.17101,.469846*
20,1,.127,.17101,.469846,.25,.433013,0.0*
1,1,.127,.25,.433013*
20,1,.127,.25,.433013,.321394,.383022,0.0*
1,1,.127,.321394,.383022*
20,1,.127,.321394,.383022,.383022,.321394,0.0*
1,1,.127,.383022,.321394*
20,1,.127,.383022,.321394,.433013,.25,0.0*
1,1,.127,.433013,.25*
20,1,.127,.433013,.25,.469846,.17101,0.0*
1,1,.127,.469846,.17101*
20,1,.127,.469846,.17101,.492404,.086824,0.0*
1,1,.127,.492404,.086824*
20,1,.127,.492404,.086824,.5,0.0,0.0*
1,1,.127,.5,0.0*
1,1,.127,-.2083,-.25*
20,1,.127,-.2083,-.25,0.0,.25,0.0*
1,1,.127,0.0,.25*
20,1,.127,0.0,.25,.2083,-.25,0.0*
1,1,.127,.2083,-.25*
1,1,.127,.1333,-.075*
20,1,.127,.1333,-.075,-.1333,-.075,0.0*
1,1,.127,-.1333,-.075*
%
%ADD13MACRO13*%
%AMMACRO11*
1,1,.127,-.27495,.22505*
20,1,.127,-.27495,.22505,.27495,.22505,0.0*
1,1,.127,.27495,.22505*
20,1,.127,.27495,.22505,.31403,.221631,0.0*
1,1,.127,.31403,.221631*
20,1,.127,.31403,.221631,.351922,.211478,0.0*
1,1,.127,.351922,.211478*
20,1,.127,.351922,.211478,.387475,.194899,0.0*
1,1,.127,.387475,.194899*
20,1,.127,.387475,.194899,.419609,.172398,0.0*
1,1,.127,.419609,.172398*
20,1,.127,.419609,.172398,.447348,.144659,0.0*
1,1,.127,.447348,.144659*
20,1,.127,.447348,.144659,.469849,.112525,0.0*
1,1,.127,.469849,.112525*
20,1,.127,.469849,.112525,.486428,.076972,0.0*
1,1,.127,.486428,.076972*
20,1,.127,.486428,.076972,.496581,.03908,0.0*
1,1,.127,.496581,.03908*
20,1,.127,.496581,.03908,.5,0.0,0.0*
1,1,.127,.5,0.0*
20,1,.127,.5,0.0,.496581,-.03908,0.0*
1,1,.127,.496581,-.03908*
20,1,.127,.496581,-.03908,.486428,-.076972,0.0*
1,1,.127,.486428,-.076972*
20,1,.127,.486428,-.076972,.469849,-.112525,0.0*
1,1,.127,.469849,-.112525*
20,1,.127,.469849,-.112525,.447348,-.144659,0.0*
1,1,.127,.447348,-.144659*
20,1,.127,.447348,-.144659,.419609,-.172398,0.0*
1,1,.127,.419609,-.172398*
20,1,.127,.419609,-.172398,.387475,-.194899,0.0*
1,1,.127,.387475,-.194899*
20,1,.127,.387475,-.194899,.351922,-.211478,0.0*
1,1,.127,.351922,-.211478*
20,1,.127,.351922,-.211478,.31403,-.221631,0.0*
1,1,.127,.31403,-.221631*
20,1,.127,.31403,-.221631,.27495,-.22505,0.0*
1,1,.127,.27495,-.22505*
20,1,.127,.27495,-.22505,-.27495,-.22505,0.0*
1,1,.127,-.27495,-.22505*
20,1,.127,-.27495,-.22505,-.31403,-.221631,0.0*
1,1,.127,-.31403,-.221631*
20,1,.127,-.31403,-.221631,-.351922,-.211478,0.0*
1,1,.127,-.351922,-.211478*
20,1,.127,-.351922,-.211478,-.387475,-.194899,0.0*
1,1,.127,-.387475,-.194899*
20,1,.127,-.387475,-.194899,-.419609,-.172398,0.0*
1,1,.127,-.419609,-.172398*
20,1,.127,-.419609,-.172398,-.447348,-.144659,0.0*
1,1,.127,-.447348,-.144659*
20,1,.127,-.447348,-.144659,-.469849,-.112525,0.0*
1,1,.127,-.469849,-.112525*
20,1,.127,-.469849,-.112525,-.486428,-.076972,0.0*
1,1,.127,-.486428,-.076972*
20,1,.127,-.486428,-.076972,-.496581,-.03908,0.0*
1,1,.127,-.496581,-.03908*
20,1,.127,-.496581,-.03908,-.5,0.0,0.0*
1,1,.127,-.5,0.0*
20,1,.127,-.5,0.0,-.496581,.03908,0.0*
1,1,.127,-.496581,.03908*
20,1,.127,-.496581,.03908,-.486428,.076972,0.0*
1,1,.127,-.486428,.076972*
20,1,.127,-.486428,.076972,-.469849,.112525,0.0*
1,1,.127,-.469849,.112525*
20,1,.127,-.469849,.112525,-.447348,.144659,0.0*
1,1,.127,-.447348,.144659*
20,1,.127,-.447348,.144659,-.419609,.172398,0.0*
1,1,.127,-.419609,.172398*
20,1,.127,-.419609,.172398,-.387475,.194899,0.0*
1,1,.127,-.387475,.194899*
20,1,.127,-.387475,.194899,-.351922,.211478,0.0*
1,1,.127,-.351922,.211478*
20,1,.127,-.351922,.211478,-.31403,.221631,0.0*
1,1,.127,-.31403,.221631*
20,1,.127,-.31403,.221631,-.27495,.22505,0.0*
1,1,.127,-.27495,.22505*
1,1,.127,0.0,-.1125*
20,1,.127,0.0,-.1125,-.03,-.1088,0.0*
1,1,.127,-.03,-.1088*
20,1,.127,-.03,-.1088,-.0562,-.0938,0.0*
1,1,.127,-.0562,-.0938*
20,1,.127,-.0562,-.0938,-.0788,-.0713,0.0*
1,1,.127,-.0788,-.0713*
20,1,.127,-.0788,-.0713,-.0938,-.045,0.0*
1,1,.127,-.0938,-.045*
20,1,.127,-.0938,-.045,-.1013,-.015,0.0*
1,1,.127,-.1013,-.015*
20,1,.127,-.1013,-.015,-.1013,.015,0.0*
1,1,.127,-.1013,.015*
20,1,.127,-.1013,.015,-.0938,.045,0.0*
1,1,.127,-.0938,.045*
20,1,.127,-.0938,.045,-.0788,.0713,0.0*
1,1,.127,-.0788,.0713*
20,1,.127,-.0788,.0713,-.0562,.0937,0.0*
1,1,.127,-.0562,.0937*
20,1,.127,-.0562,.0937,-.03,.1088,0.0*
1,1,.127,-.03,.1088*
20,1,.127,-.03,.1088,0.0,.1125,0.0*
1,1,.127,0.0,.1125*
20,1,.127,0.0,.1125,.03,.1088,0.0*
1,1,.127,.03,.1088*
20,1,.127,.03,.1088,.0562,.0937,0.0*
1,1,.127,.0562,.0937*
20,1,.127,.0562,.0937,.0788,.0713,0.0*
1,1,.127,.0788,.0713*
20,1,.127,.0788,.0713,.0938,.045,0.0*
1,1,.127,.0938,.045*
20,1,.127,.0938,.045,.1013,.015,0.0*
1,1,.127,.1013,.015*
20,1,.127,.1013,.015,.1013,-.015,0.0*
1,1,.127,.1013,-.015*
20,1,.127,.1013,-.015,.0938,-.045,0.0*
1,1,.127,.0938,-.045*
20,1,.127,.0938,-.045,.0788,-.0713,0.0*
1,1,.127,.0788,-.0713*
20,1,.127,.0788,-.0713,.0562,-.0938,0.0*
1,1,.127,.0562,-.0938*
20,1,.127,.0562,-.0938,.03,-.1088,0.0*
1,1,.127,.03,-.1088*
20,1,.127,.03,-.1088,0.0,-.1125,0.0*
1,1,.127,0.0,-.1125*
%
%ADD11MACRO11*%
%AMMACRO12*
1,1,.127,.25005,0.0*
20,1,.127,.25005,0.0,.246251,-.043421,0.0*
1,1,.127,.246251,-.043421*
20,1,.127,.246251,-.043421,.23497,-.085522,0.0*
1,1,.127,.23497,-.085522*
20,1,.127,.23497,-.085522,.21655,-.125025,0.0*
1,1,.127,.21655,-.125025*
20,1,.127,.21655,-.125025,.191549,-.160729,0.0*
1,1,.127,.191549,-.160729*
20,1,.127,.191549,-.160729,.160729,-.191549,0.0*
1,1,.127,.160729,-.191549*
20,1,.127,.160729,-.191549,.125025,-.21655,0.0*
1,1,.127,.125025,-.21655*
20,1,.127,.125025,-.21655,.085522,-.23497,0.0*
1,1,.127,.085522,-.23497*
20,1,.127,.085522,-.23497,.043421,-.246251,0.0*
1,1,.127,.043421,-.246251*
20,1,.127,.043421,-.246251,0.0,-.25005,0.0*
1,1,.127,0.0,-.25005*
20,1,.127,0.0,-.25005,-.043421,-.246251,0.0*
1,1,.127,-.043421,-.246251*
20,1,.127,-.043421,-.246251,-.085522,-.23497,0.0*
1,1,.127,-.085522,-.23497*
20,1,.127,-.085522,-.23497,-.125025,-.21655,0.0*
1,1,.127,-.125025,-.21655*
20,1,.127,-.125025,-.21655,-.160729,-.191549,0.0*
1,1,.127,-.160729,-.191549*
20,1,.127,-.160729,-.191549,-.191549,-.160729,0.0*
1,1,.127,-.191549,-.160729*
20,1,.127,-.191549,-.160729,-.21655,-.125025,0.0*
1,1,.127,-.21655,-.125025*
20,1,.127,-.21655,-.125025,-.23497,-.085522,0.0*
1,1,.127,-.23497,-.085522*
20,1,.127,-.23497,-.085522,-.246251,-.043421,0.0*
1,1,.127,-.246251,-.043421*
20,1,.127,-.246251,-.043421,-.25005,0.0,0.0*
1,1,.127,-.25005,0.0*
20,1,.127,-.25005,0.0,-.246251,.043421,0.0*
1,1,.127,-.246251,.043421*
20,1,.127,-.246251,.043421,-.23497,.085522,0.0*
1,1,.127,-.23497,.085522*
20,1,.127,-.23497,.085522,-.21655,.125025,0.0*
1,1,.127,-.21655,.125025*
20,1,.127,-.21655,.125025,-.191549,.160729,0.0*
1,1,.127,-.191549,.160729*
20,1,.127,-.191549,.160729,-.160729,.191549,0.0*
1,1,.127,-.160729,.191549*
20,1,.127,-.160729,.191549,-.125025,.21655,0.0*
1,1,.127,-.125025,.21655*
20,1,.127,-.125025,.21655,-.085522,.23497,0.0*
1,1,.127,-.085522,.23497*
20,1,.127,-.085522,.23497,-.043421,.246251,0.0*
1,1,.127,-.043421,.246251*
20,1,.127,-.043421,.246251,0.0,.25005,0.0*
1,1,.127,0.0,.25005*
20,1,.127,0.0,.25005,.043421,.246251,0.0*
1,1,.127,.043421,.246251*
20,1,.127,.043421,.246251,.085522,.23497,0.0*
1,1,.127,.085522,.23497*
20,1,.127,.085522,.23497,.125025,.21655,0.0*
1,1,.127,.125025,.21655*
20,1,.127,.125025,.21655,.160729,.191549,0.0*
1,1,.127,.160729,.191549*
20,1,.127,.160729,.191549,.191549,.160729,0.0*
1,1,.127,.191549,.160729*
20,1,.127,.191549,.160729,.21655,.125025,0.0*
1,1,.127,.21655,.125025*
20,1,.127,.21655,.125025,.23497,.085522,0.0*
1,1,.127,.23497,.085522*
20,1,.127,.23497,.085522,.246251,.043421,0.0*
1,1,.127,.246251,.043421*
20,1,.127,.246251,.043421,.25005,0.0,0.0*
1,1,.127,.25005,0.0*
1,1,.127,-.1083,-.125*
20,1,.127,-.1083,-.125,-.1083,.125,0.0*
1,1,.127,-.1083,.125*
20,1,.127,-.1083,.125,0.0,-.0833,0.0*
1,1,.127,0.0,-.0833*
20,1,.127,0.0,-.0833,.1083,.125,0.0*
1,1,.127,.1083,.125*
20,1,.127,.1083,.125,.1083,-.125,0.0*
1,1,.127,.1083,-.125*
%
%ADD12MACRO12*%
%AMMACRO14*
1,1,.127,.125,0.0*
20,1,.127,.125,0.0,.123101,-.021706,0.0*
1,1,.127,.123101,-.021706*
20,1,.127,.123101,-.021706,.117462,-.042753,0.0*
1,1,.127,.117462,-.042753*
20,1,.127,.117462,-.042753,.108253,-.0625,0.0*
1,1,.127,.108253,-.0625*
20,1,.127,.108253,-.0625,.095756,-.080348,0.0*
1,1,.127,.095756,-.080348*
20,1,.127,.095756,-.080348,.080348,-.095756,0.0*
1,1,.127,.080348,-.095756*
20,1,.127,.080348,-.095756,.0625,-.108253,0.0*
1,1,.127,.0625,-.108253*
20,1,.127,.0625,-.108253,.042753,-.117462,0.0*
1,1,.127,.042753,-.117462*
20,1,.127,.042753,-.117462,.021706,-.123101,0.0*
1,1,.127,.021706,-.123101*
20,1,.127,.021706,-.123101,0.0,-.125,0.0*
1,1,.127,0.0,-.125*
20,1,.127,0.0,-.125,-.021706,-.123101,0.0*
1,1,.127,-.021706,-.123101*
20,1,.127,-.021706,-.123101,-.042753,-.117462,0.0*
1,1,.127,-.042753,-.117462*
20,1,.127,-.042753,-.117462,-.0625,-.108253,0.0*
1,1,.127,-.0625,-.108253*
20,1,.127,-.0625,-.108253,-.080348,-.095756,0.0*
1,1,.127,-.080348,-.095756*
20,1,.127,-.080348,-.095756,-.095756,-.080348,0.0*
1,1,.127,-.095756,-.080348*
20,1,.127,-.095756,-.080348,-.108253,-.0625,0.0*
1,1,.127,-.108253,-.0625*
20,1,.127,-.108253,-.0625,-.117462,-.042753,0.0*
1,1,.127,-.117462,-.042753*
20,1,.127,-.117462,-.042753,-.123101,-.021706,0.0*
1,1,.127,-.123101,-.021706*
20,1,.127,-.123101,-.021706,-.125,0.0,0.0*
1,1,.127,-.125,0.0*
20,1,.127,-.125,0.0,-.123101,.021706,0.0*
1,1,.127,-.123101,.021706*
20,1,.127,-.123101,.021706,-.117462,.042753,0.0*
1,1,.127,-.117462,.042753*
20,1,.127,-.117462,.042753,-.108253,.0625,0.0*
1,1,.127,-.108253,.0625*
20,1,.127,-.108253,.0625,-.095756,.080348,0.0*
1,1,.127,-.095756,.080348*
20,1,.127,-.095756,.080348,-.080348,.095756,0.0*
1,1,.127,-.080348,.095756*
20,1,.127,-.080348,.095756,-.0625,.108253,0.0*
1,1,.127,-.0625,.108253*
20,1,.127,-.0625,.108253,-.042753,.117462,0.0*
1,1,.127,-.042753,.117462*
20,1,.127,-.042753,.117462,-.021706,.123101,0.0*
1,1,.127,-.021706,.123101*
20,1,.127,-.021706,.123101,0.0,.125,0.0*
1,1,.127,0.0,.125*
20,1,.127,0.0,.125,.021706,.123101,0.0*
1,1,.127,.021706,.123101*
20,1,.127,.021706,.123101,.042753,.117462,0.0*
1,1,.127,.042753,.117462*
20,1,.127,.042753,.117462,.0625,.108253,0.0*
1,1,.127,.0625,.108253*
20,1,.127,.0625,.108253,.080348,.095756,0.0*
1,1,.127,.080348,.095756*
20,1,.127,.080348,.095756,.095756,.080348,0.0*
1,1,.127,.095756,.080348*
20,1,.127,.095756,.080348,.108253,.0625,0.0*
1,1,.127,.108253,.0625*
20,1,.127,.108253,.0625,.117462,.042753,0.0*
1,1,.127,.117462,.042753*
20,1,.127,.117462,.042753,.123101,.021706,0.0*
1,1,.127,.123101,.021706*
20,1,.127,.123101,.021706,.125,0.0,0.0*
1,1,.127,.125,0.0*
1,1,.127,-.0521,.0625*
20,1,.127,-.0521,.0625,0.0,-.0625,0.0*
1,1,.127,0.0,-.0625*
20,1,.127,0.0,-.0625,.0521,.0625,0.0*
1,1,.127,.0521,.0625*
%
%ADD14MACRO14*%
%AMMACRO10*
1,1,.127,-.44995,.25005*
20,1,.127,-.44995,.25005,.44995,.25005,0.0*
1,1,.127,.44995,.25005*
20,1,.127,.44995,.25005,.493371,.246251,0.0*
1,1,.127,.493371,.246251*
20,1,.127,.493371,.246251,.535472,.23497,0.0*
1,1,.127,.535472,.23497*
20,1,.127,.535472,.23497,.574975,.21655,0.0*
1,1,.127,.574975,.21655*
20,1,.127,.574975,.21655,.610679,.191549,0.0*
1,1,.127,.610679,.191549*
20,1,.127,.610679,.191549,.641499,.160729,0.0*
1,1,.127,.641499,.160729*
20,1,.127,.641499,.160729,.6665,.125025,0.0*
1,1,.127,.6665,.125025*
20,1,.127,.6665,.125025,.68492,.085522,0.0*
1,1,.127,.68492,.085522*
20,1,.127,.68492,.085522,.696201,.043421,0.0*
1,1,.127,.696201,.043421*
20,1,.127,.696201,.043421,.7,0.0,0.0*
1,1,.127,.7,0.0*
20,1,.127,.7,0.0,.696201,-.043421,0.0*
1,1,.127,.696201,-.043421*
20,1,.127,.696201,-.043421,.68492,-.085522,0.0*
1,1,.127,.68492,-.085522*
20,1,.127,.68492,-.085522,.6665,-.125025,0.0*
1,1,.127,.6665,-.125025*
20,1,.127,.6665,-.125025,.641499,-.160729,0.0*
1,1,.127,.641499,-.160729*
20,1,.127,.641499,-.160729,.610679,-.191549,0.0*
1,1,.127,.610679,-.191549*
20,1,.127,.610679,-.191549,.574975,-.21655,0.0*
1,1,.127,.574975,-.21655*
20,1,.127,.574975,-.21655,.535472,-.23497,0.0*
1,1,.127,.535472,-.23497*
20,1,.127,.535472,-.23497,.493371,-.246251,0.0*
1,1,.127,.493371,-.246251*
20,1,.127,.493371,-.246251,.44995,-.25005,0.0*
1,1,.127,.44995,-.25005*
20,1,.127,.44995,-.25005,-.44995,-.25005,0.0*
1,1,.127,-.44995,-.25005*
20,1,.127,-.44995,-.25005,-.493371,-.246251,0.0*
1,1,.127,-.493371,-.246251*
20,1,.127,-.493371,-.246251,-.535472,-.23497,0.0*
1,1,.127,-.535472,-.23497*
20,1,.127,-.535472,-.23497,-.574975,-.21655,0.0*
1,1,.127,-.574975,-.21655*
20,1,.127,-.574975,-.21655,-.610679,-.191549,0.0*
1,1,.127,-.610679,-.191549*
20,1,.127,-.610679,-.191549,-.641499,-.160729,0.0*
1,1,.127,-.641499,-.160729*
20,1,.127,-.641499,-.160729,-.6665,-.125025,0.0*
1,1,.127,-.6665,-.125025*
20,1,.127,-.6665,-.125025,-.68492,-.085522,0.0*
1,1,.127,-.68492,-.085522*
20,1,.127,-.68492,-.085522,-.696201,-.043421,0.0*
1,1,.127,-.696201,-.043421*
20,1,.127,-.696201,-.043421,-.7,0.0,0.0*
1,1,.127,-.7,0.0*
20,1,.127,-.7,0.0,-.696201,.043421,0.0*
1,1,.127,-.696201,.043421*
20,1,.127,-.696201,.043421,-.68492,.085522,0.0*
1,1,.127,-.68492,.085522*
20,1,.127,-.68492,.085522,-.6665,.125025,0.0*
1,1,.127,-.6665,.125025*
20,1,.127,-.6665,.125025,-.641499,.160729,0.0*
1,1,.127,-.641499,.160729*
20,1,.127,-.641499,.160729,-.610679,.191549,0.0*
1,1,.127,-.610679,.191549*
20,1,.127,-.610679,.191549,-.574975,.21655,0.0*
1,1,.127,-.574975,.21655*
20,1,.127,-.574975,.21655,-.535472,.23497,0.0*
1,1,.127,-.535472,.23497*
20,1,.127,-.535472,.23497,-.493371,.246251,0.0*
1,1,.127,-.493371,.246251*
20,1,.127,-.493371,.246251,-.44995,.25005,0.0*
1,1,.127,-.44995,.25005*
1,1,.127,-.125,-.125*
20,1,.127,-.125,-.125,-.1583,-.1208,0.0*
1,1,.127,-.1583,-.1208*
20,1,.127,-.1583,-.1208,-.1875,-.1042,0.0*
1,1,.127,-.1875,-.1042*
20,1,.127,-.1875,-.1042,-.2125,-.0792,0.0*
1,1,.127,-.2125,-.0792*
20,1,.127,-.2125,-.0792,-.2292,-.05,0.0*
1,1,.127,-.2292,-.05*
20,1,.127,-.2292,-.05,-.2375,-.0167,0.0*
1,1,.127,-.2375,-.0167*
20,1,.127,-.2375,-.0167,-.2375,.0167,0.0*
1,1,.127,-.2375,.0167*
20,1,.127,-.2375,.0167,-.2292,.05,0.0*
1,1,.127,-.2292,.05*
20,1,.127,-.2292,.05,-.2125,.0792,0.0*
1,1,.127,-.2125,.0792*
20,1,.127,-.2125,.0792,-.1875,.1042,0.0*
1,1,.127,-.1875,.1042*
20,1,.127,-.1875,.1042,-.1583,.1208,0.0*
1,1,.127,-.1583,.1208*
20,1,.127,-.1583,.1208,-.125,.125,0.0*
1,1,.127,-.125,.125*
20,1,.127,-.125,.125,-.0917,.1208,0.0*
1,1,.127,-.0917,.1208*
20,1,.127,-.0917,.1208,-.0625,.1042,0.0*
1,1,.127,-.0625,.1042*
20,1,.127,-.0625,.1042,-.0375,.0792,0.0*
1,1,.127,-.0375,.0792*
20,1,.127,-.0375,.0792,-.0208,.05,0.0*
1,1,.127,-.0208,.05*
20,1,.127,-.0208,.05,-.0125,.0167,0.0*
1,1,.127,-.0125,.0167*
20,1,.127,-.0125,.0167,-.0125,-.0167,0.0*
1,1,.127,-.0125,-.0167*
20,1,.127,-.0125,-.0167,-.0208,-.05,0.0*
1,1,.127,-.0208,-.05*
20,1,.127,-.0208,-.05,-.0375,-.0792,0.0*
1,1,.127,-.0375,-.0792*
20,1,.127,-.0375,-.0792,-.0625,-.1042,0.0*
1,1,.127,-.0625,-.1042*
20,1,.127,-.0625,-.1042,-.0917,-.1208,0.0*
1,1,.127,-.0917,-.1208*
20,1,.127,-.0917,-.1208,-.125,-.125,0.0*
1,1,.127,-.125,-.125*
1,1,.127,.1251,-.125*
20,1,.127,.1251,-.125,.1251,.125,0.0*
1,1,.127,.1251,.125*
20,1,.127,.1251,.125,.0751,.075,0.0*
1,1,.127,.0751,.075*
1,1,.127,.0751,-.125*
20,1,.127,.0751,-.125,.1751,-.125,0.0*
1,1,.127,.1751,-.125*
%
%ADD10MACRO10*%
%ADD15C,.1*%
%ADD16C,.127*%
G75*
%LPD*%
G75*
G54D10*
X210000Y1140000D03*
Y1860000D03*
X8426450Y-840500D03*
G54D11*
X555000Y1140000D03*
Y1860000D03*
X8426450Y-205500D03*
G54D12*
X425000Y1700000D03*
Y1300000D03*
X8426450Y429500D03*
G54D13*
X1091000Y357000D03*
X837000D03*
X1091000Y2643000D03*
X837000D03*
X1599000Y357000D03*
X1345000D03*
X1600200Y1920240D03*
Y2174240D03*
X1599000Y2643000D03*
X1345000D03*
X2361000Y357000D03*
X2107000D03*
X1853000D03*
X1854200Y1920240D03*
Y2174240D03*
X2108200Y1920240D03*
Y2174240D03*
X2361000Y2643000D03*
X2107000D03*
X1853000D03*
X2869000Y357000D03*
X2615000D03*
X2869000Y2643000D03*
X2615000D03*
X3377000Y357000D03*
X3123000D03*
X3377000Y2643000D03*
X3123000D03*
X4139000Y357000D03*
X3885000D03*
X3631000D03*
X4139000Y2643000D03*
X3885000D03*
X3631000D03*
X4647000Y357000D03*
X4393000D03*
X4647000Y2643000D03*
X4393000D03*
X5409000Y357000D03*
X5155000D03*
X4901000D03*
X5409000Y2643000D03*
X5155000D03*
X4901000D03*
X5663000Y357000D03*
Y2643000D03*
X6100000Y1119000D03*
Y1627000D03*
Y1373000D03*
Y1881000D03*
X8426450Y1064500D03*
G54D14*
X731520Y1013460D03*
X677080Y2076280D03*
X2118360Y1501140D03*
X2192020Y1483360D03*
X2290340Y1475000D03*
X1863090Y1563370D03*
X1900360Y1526100D03*
X1992630Y1530350D03*
X2029900Y1493080D03*
X2608580Y784860D03*
X2933700Y876300D03*
X2580640Y1310640D03*
X2395220Y1425000D03*
X2463800Y1375000D03*
X2405800Y1132420D03*
X2672080Y1927860D03*
X3281680Y680720D03*
X3299460Y746760D03*
X3317240Y810260D03*
X3375000Y885800D03*
X3425000Y949960D03*
X3091180Y1505780D03*
X3119120Y1252220D03*
X3258820Y1775460D03*
X3175000Y2209800D03*
X3977640Y1600200D03*
X4043680Y1137920D03*
X3970020Y1524000D03*
X3987800Y1694180D03*
X4107180Y1945640D03*
X4650740Y980000D03*
X4315460Y1310640D03*
Y1127760D03*
X4577080Y1135380D03*
X4297680Y2159000D03*
X4452620Y2313940D03*
X4772660Y1600200D03*
Y1780540D03*
X4775200Y1935480D03*
X5466080Y1605280D03*
X5580380Y1409700D03*
X5455920Y1945640D03*
X5646420Y2151380D03*
X8426450Y1699500D03*
G54D15*
G01X300000Y0D02*
X6200000D01*
G03X6500000Y300000I0J300000D01*
G01Y2700000D01*
G03X6200000Y3000000I-300000J0D01*
G01X300000D01*
G03X0Y2700000I0J-300000D01*
G01Y300000D01*
G03X300000Y0I300000J0D01*
G54D16*
G01X7284720Y-1158000D02*
Y3937000D01*
X19883120D01*
Y-1158000D01*
X7284720D01*
G01Y-523000D02*
X19883120D01*
G01X7284720Y112000D02*
X19883120D01*
G01X7284720Y747000D02*
X19883120D01*
G01X7284720Y1382000D02*
X19883120D01*
G01X7564240Y2175750D02*
Y2493250D01*
X7713860D01*
G01X7658730Y2339800D02*
X7564240D01*
G01X7906770Y2493250D02*
X8001250D01*
G01X7954010D02*
Y2175750D01*
G01X7906770D02*
X8001250D01*
G01X8292590Y2334500D02*
X8371340D01*
Y2239250D01*
X8347710Y2207490D01*
X8320150Y2186330D01*
X8280780Y2175750D01*
X8241410Y2186330D01*
X8213850Y2207490D01*
X8190230Y2239250D01*
X8174480Y2276290D01*
X8166600Y2318620D01*
Y2355670D01*
X8174480Y2387410D01*
X8190230Y2424460D01*
X8213850Y2456210D01*
X8237470Y2477370D01*
X8268970Y2493250D01*
X8296530D01*
X8328020Y2482670D01*
X8351650Y2461500D01*
G01X8497320Y2493250D02*
Y2265710D01*
X8513060Y2218070D01*
X8544560Y2186330D01*
X8583930Y2175750D01*
X8623300Y2186330D01*
X8654800Y2218070D01*
X8670540Y2265710D01*
Y2493250D01*
G01X8820150Y2175750D02*
Y2493250D01*
X8918570D01*
X8950070Y2477370D01*
X8969760Y2456210D01*
X8977630Y2413870D01*
X8969760Y2371540D01*
X8946130Y2345090D01*
X8918570Y2329200D01*
X8820150D01*
G01X8918570D02*
X8977630Y2175750D01*
G01X9292590D02*
X9135110D01*
Y2493250D01*
X9292590D01*
G01X9229600Y2339800D02*
X9135110D01*
G01X7284720Y2017000D02*
X19883120D01*
G01X7284720Y2652000D02*
X19883120D01*
G01X7284720Y3287000D02*
X19883120D01*
G01X9568180Y2652000D02*
Y-1158000D01*
G01X9233530Y2810750D02*
X9331960Y3128250D01*
X9430390Y2810750D01*
G01X9394950Y2921870D02*
X9268960D01*
G01X9568180Y3128250D02*
Y2810750D01*
X9725660D01*
G01X9883140Y3128250D02*
Y2810750D01*
X10040620D01*
G01X10505190Y3128250D02*
Y2900710D01*
X10520930Y2853070D01*
X10552430Y2821330D01*
X10591800Y2810750D01*
X10631170Y2821330D01*
X10662670Y2853070D01*
X10678410Y2900710D01*
Y3128250D01*
G01X10816210Y2810750D02*
Y3128250D01*
X10997310Y2810750D01*
Y3128250D01*
G01X11174480D02*
X11268960D01*
G01X11221720D02*
Y2810750D01*
G01X11174480D02*
X11268960D01*
G01X11536680Y3128250D02*
Y2810750D01*
G01X11446130Y3128250D02*
X11627230D01*
G01X11768960Y2853070D02*
X11800460Y2826620D01*
X11835890Y2810750D01*
X11867390D01*
X11898880Y2826620D01*
X11922510Y2853070D01*
X11934320Y2890130D01*
X11926450Y2927160D01*
X11906760Y2958910D01*
X11871320Y2980090D01*
X11824080Y2990670D01*
X11796520Y3011830D01*
X11784710Y3048870D01*
X11792590Y3085920D01*
X11812270Y3112370D01*
X11839830Y3128250D01*
X11867390D01*
X11894950Y3117670D01*
X11918570Y3091210D01*
G01X12383130Y2810750D02*
X12481560Y3128250D01*
X12579990Y2810750D01*
G01X12544550Y2921870D02*
X12418560D01*
G01X12717780Y2810750D02*
Y3128250D01*
X12816200D01*
X12847700Y3112370D01*
X12867390Y3091210D01*
X12875260Y3048870D01*
X12867390Y3006540D01*
X12843760Y2980090D01*
X12816200Y2964200D01*
X12717780D01*
G01X12816200D02*
X12875260Y2810750D01*
G01X13190220D02*
X13032740D01*
Y3128250D01*
X13190220D01*
G01X13127230Y2974800D02*
X13032740D01*
G01X13694160Y3128250D02*
X13788640D01*
G01X13741400D02*
Y2810750D01*
G01X13694160D02*
X13788640D01*
G01X13965810D02*
Y3128250D01*
X14146910Y2810750D01*
Y3128250D01*
G01X14583910Y2810750D02*
Y3128250D01*
X14686280Y2863670D01*
X14788650Y3128250D01*
Y2810750D01*
G01X14954000Y3128250D02*
X15048480D01*
G01X15001240D02*
Y2810750D01*
G01X14954000D02*
X15048480D01*
G01X15237460Y3128250D02*
Y2810750D01*
X15394940D01*
G01X15552420Y3128250D02*
Y2810750D01*
X15709900D01*
G01X15898880Y3128250D02*
X15993360D01*
G01X15946120D02*
Y2810750D01*
G01X15898880D02*
X15993360D01*
G01X16158710D02*
Y3128250D01*
X16261080Y2863670D01*
X16363450Y3128250D01*
Y2810750D01*
G01X16654780D02*
X16497300D01*
Y3128250D01*
X16654780D01*
G01X16591790Y2974800D02*
X16497300D01*
G01X16891000Y3128250D02*
Y2810750D01*
G01X16800450Y3128250D02*
X16981550D01*
G01X17284700Y2810750D02*
X17127220D01*
Y3128250D01*
X17284700D01*
G01X17221710Y2974800D02*
X17127220D01*
G01X17442180Y2810750D02*
Y3128250D01*
X17540600D01*
X17572100Y3112370D01*
X17591790Y3091210D01*
X17599660Y3048870D01*
X17591790Y3006540D01*
X17568160Y2980090D01*
X17540600Y2964200D01*
X17442180D01*
G01X17540600D02*
X17599660Y2810750D01*
G01X17753200Y2853070D02*
X17784700Y2826620D01*
X17820130Y2810750D01*
X17851630D01*
X17883120Y2826620D01*
X17906750Y2853070D01*
X17918560Y2890130D01*
X17910690Y2927160D01*
X17891000Y2958910D01*
X17855560Y2980090D01*
X17808320Y2990670D01*
X17780760Y3011830D01*
X17768950Y3048870D01*
X17776830Y3085920D01*
X17796510Y3112370D01*
X17824070Y3128250D01*
X17851630D01*
X17879190Y3117670D01*
X17902810Y3091210D01*
G01X9560310Y3460750D02*
Y3778250D01*
X9639040D01*
X9670540Y3762370D01*
X9694160Y3741210D01*
X9713850Y3709460D01*
X9729600Y3672410D01*
X9733530Y3619500D01*
X9729600Y3566580D01*
X9713850Y3529540D01*
X9694160Y3497780D01*
X9670540Y3476620D01*
X9639040Y3460750D01*
X9560310D01*
G01X9883140D02*
Y3778250D01*
X9981560D01*
X10013060Y3762370D01*
X10032750Y3741210D01*
X10040620Y3698870D01*
X10032750Y3656540D01*
X10009120Y3630090D01*
X9981560Y3614200D01*
X9883140D01*
G01X9981560D02*
X10040620Y3460750D01*
G01X10229600Y3778250D02*
X10324080D01*
G01X10276840D02*
Y3460750D01*
G01X10229600D02*
X10324080D01*
G01X10513060Y3778250D02*
Y3460750D01*
X10670540D01*
G01X10828020Y3778250D02*
Y3460750D01*
X10985500D01*
G01X11623290Y3751790D02*
X11599670Y3767670D01*
X11572120Y3778250D01*
X11540620D01*
X11505180Y3762370D01*
X11477630Y3735920D01*
X11457940Y3704160D01*
X11442190Y3651250D01*
X11438250Y3603620D01*
X11446130Y3556000D01*
X11457940Y3524250D01*
X11481560Y3492490D01*
X11509120Y3471330D01*
X11536680Y3460750D01*
X11564240D01*
X11591800Y3471330D01*
X11615420Y3487200D01*
X11635110Y3508360D01*
G01X11768960Y3460750D02*
Y3778250D01*
G01X11934320D02*
Y3460750D01*
G01Y3619500D02*
X11768960D01*
G01X12068170Y3460750D02*
X12166600Y3778250D01*
X12265030Y3460750D01*
G01X12229590Y3571870D02*
X12103600D01*
G01X12402820Y3460750D02*
Y3778250D01*
X12501240D01*
X12532740Y3762370D01*
X12552430Y3741210D01*
X12560300Y3698870D01*
X12552430Y3656540D01*
X12528800Y3630090D01*
X12501240Y3614200D01*
X12402820D01*
G01X12501240D02*
X12560300Y3460750D01*
G01X12796520Y3778250D02*
Y3460750D01*
G01X12705970Y3778250D02*
X12887070D01*
G01X13111480Y3450170D02*
X13103600Y3455460D01*
Y3466040D01*
X13111480Y3471330D01*
X13119360Y3466040D01*
Y3455460D01*
X13111480Y3450170D01*
G01Y3593030D02*
X13103600Y3598330D01*
Y3608910D01*
X13111480Y3614200D01*
X13119360Y3608910D01*
Y3598330D01*
X13111480Y3593030D01*
G01X13741400Y3778250D02*
Y3460750D01*
G01X13650850Y3778250D02*
X13831950D01*
G01X14056360Y3460750D02*
X14024860Y3466040D01*
X13997310Y3487200D01*
X13973680Y3518960D01*
X13957930Y3556000D01*
X13950060Y3598330D01*
Y3640670D01*
X13957930Y3683000D01*
X13973680Y3720040D01*
X13997310Y3751790D01*
X14024860Y3772960D01*
X14056360Y3778250D01*
X14087850Y3772960D01*
X14115410Y3751790D01*
X14139040Y3720040D01*
X14154790Y3683000D01*
X14162660Y3640670D01*
Y3598330D01*
X14154790Y3556000D01*
X14139040Y3518960D01*
X14115410Y3487200D01*
X14087850Y3466040D01*
X14056360Y3460750D01*
G01X14292580D02*
Y3778250D01*
X14387070D01*
X14418560Y3762370D01*
X14442190Y3725330D01*
X14450060Y3683000D01*
X14442190Y3640670D01*
X14422500Y3608910D01*
X14387070Y3593030D01*
X14292580D01*
G01X15001240Y3778250D02*
Y3460750D01*
G01X14946120Y3672410D02*
X15056360D01*
G01X15316200Y3460750D02*
X15292580Y3466040D01*
X15268960Y3487200D01*
X15253200Y3524250D01*
X15245330Y3566580D01*
X15253200Y3608910D01*
X15268960Y3645960D01*
X15292580Y3667120D01*
X15316200Y3672410D01*
X15339820Y3667120D01*
X15363440Y3645960D01*
X15379190Y3608910D01*
X15383130Y3566580D01*
X15379190Y3524250D01*
X15363440Y3487200D01*
X15339820Y3466040D01*
X15316200Y3460750D01*
G01X15977610Y3630090D02*
X15993360Y3645960D01*
X16005170Y3672410D01*
X16013050Y3709460D01*
X16005170Y3741210D01*
X15989430Y3762370D01*
X15961870Y3778250D01*
X15855570D01*
Y3460750D01*
X15985490D01*
X16013050Y3481910D01*
X16028800Y3513670D01*
X16036670Y3550710D01*
X16028800Y3587740D01*
X16005170Y3619500D01*
X15977610Y3630090D01*
X15855570D01*
G01X16261080Y3460750D02*
X16229580Y3466040D01*
X16202030Y3487200D01*
X16178400Y3518960D01*
X16162650Y3556000D01*
X16154780Y3598330D01*
Y3640670D01*
X16162650Y3683000D01*
X16178400Y3720040D01*
X16202030Y3751790D01*
X16229580Y3772960D01*
X16261080Y3778250D01*
X16292570Y3772960D01*
X16320130Y3751790D01*
X16343760Y3720040D01*
X16359510Y3683000D01*
X16367380Y3640670D01*
Y3598330D01*
X16359510Y3556000D01*
X16343760Y3518960D01*
X16320130Y3487200D01*
X16292570Y3466040D01*
X16261080Y3460750D01*
G01X16576040Y3778250D02*
Y3460750D01*
G01X16485490Y3778250D02*
X16666590D01*
G01X16891000D02*
Y3460750D01*
G01X16800450Y3778250D02*
X16981550D01*
G01X17205960Y3460750D02*
X17174460Y3466040D01*
X17146910Y3487200D01*
X17123280Y3518960D01*
X17107530Y3556000D01*
X17099660Y3598330D01*
Y3640670D01*
X17107530Y3683000D01*
X17123280Y3720040D01*
X17146910Y3751790D01*
X17174460Y3772960D01*
X17205960Y3778250D01*
X17237450Y3772960D01*
X17265010Y3751790D01*
X17288640Y3720040D01*
X17304390Y3683000D01*
X17312260Y3640670D01*
Y3598330D01*
X17304390Y3556000D01*
X17288640Y3518960D01*
X17265010Y3487200D01*
X17237450Y3466040D01*
X17205960Y3460750D01*
G01X17418550D02*
Y3778250D01*
X17520920Y3513670D01*
X17623290Y3778250D01*
Y3460750D01*
G01X10162660Y2175750D02*
Y2493250D01*
X10312280D01*
G01X10257150Y2339800D02*
X10162660D01*
G01X10505190Y2493250D02*
X10599670D01*
G01X10552430D02*
Y2175750D01*
G01X10505190D02*
X10599670D01*
G01X10776840D02*
Y2493250D01*
X10957940Y2175750D01*
Y2493250D01*
G01X11135110D02*
X11229590D01*
G01X11182350D02*
Y2175750D01*
G01X11135110D02*
X11229590D01*
G01X11414630Y2218070D02*
X11446130Y2191620D01*
X11481560Y2175750D01*
X11513060D01*
X11544550Y2191620D01*
X11568180Y2218070D01*
X11579990Y2255130D01*
X11572120Y2292160D01*
X11552430Y2323910D01*
X11516990Y2345090D01*
X11469750Y2355670D01*
X11442190Y2376830D01*
X11430380Y2413870D01*
X11438260Y2450920D01*
X11457940Y2477370D01*
X11485500Y2493250D01*
X11513060D01*
X11540620Y2482670D01*
X11564240Y2456210D01*
G01X11729590Y2175750D02*
Y2493250D01*
G01X11894950D02*
Y2175750D01*
G01Y2334500D02*
X11729590D01*
G01X12205970Y2175750D02*
X12048490D01*
Y2493250D01*
X12205970D01*
G01X12142980Y2339800D02*
X12048490D01*
G01X12355580Y2175750D02*
Y2493250D01*
X12434310D01*
X12465810Y2477370D01*
X12489430Y2456210D01*
X12509120Y2424460D01*
X12524870Y2387410D01*
X12528800Y2334500D01*
X12524870Y2281580D01*
X12509120Y2244540D01*
X12489430Y2212780D01*
X12465810Y2191620D01*
X12434310Y2175750D01*
X12355580D01*
G01X12639040Y2069920D02*
X12875260D01*
G01X12989430Y2218070D02*
X13020930Y2191620D01*
X13056360Y2175750D01*
X13087860D01*
X13119350Y2191620D01*
X13142980Y2218070D01*
X13154790Y2255130D01*
X13146920Y2292160D01*
X13127230Y2323910D01*
X13091790Y2345090D01*
X13044550Y2355670D01*
X13016990Y2376830D01*
X13005180Y2413870D01*
X13013060Y2450920D01*
X13032740Y2477370D01*
X13060300Y2493250D01*
X13087860D01*
X13115420Y2482670D01*
X13139040Y2456210D01*
G01X13339830Y2493250D02*
X13434310D01*
G01X13387070D02*
Y2175750D01*
G01X13339830D02*
X13434310D01*
G01X13627220Y2493250D02*
X13776840D01*
X13627220Y2175750D01*
X13776840D01*
G01X14095730D02*
X13938250D01*
Y2493250D01*
X14095730D01*
G01X14032740Y2339800D02*
X13938250D01*
G01X10709910Y-999250D02*
Y-681750D01*
X10662670Y-745250D01*
G01Y-999250D02*
X10757150D01*
G01X11024870Y-1009830D02*
X11016990Y-1004540D01*
Y-993960D01*
X11024870Y-988670D01*
X11032750Y-993960D01*
Y-1004540D01*
X11024870Y-1009830D01*
G01X11387070Y-999250D02*
Y-681750D01*
X11241400Y-909290D01*
X11438260D01*
G01X11595740Y-787590D02*
X11713840Y-999250D01*
G01Y-787590D02*
X11595740Y-999250D01*
G01X11969750Y-681750D02*
X11938250Y-692330D01*
X11914630Y-718790D01*
X11898880Y-750540D01*
X11887070Y-792880D01*
X11883140Y-840500D01*
X11887070Y-888130D01*
X11898880Y-930460D01*
X11914630Y-962220D01*
X11938250Y-988670D01*
X11969750Y-999250D01*
X12001240Y-988670D01*
X12024870Y-962220D01*
X12040620Y-930460D01*
X12052430Y-888130D01*
X12056360Y-840500D01*
X12052430Y-792880D01*
X12040620Y-750540D01*
X12024870Y-718790D01*
X12001240Y-692330D01*
X11969750Y-681750D01*
G01X12284710Y-1009830D02*
X12276830Y-1004540D01*
Y-993960D01*
X12284710Y-988670D01*
X12292590Y-993960D01*
Y-1004540D01*
X12284710Y-1009830D01*
G01X12513060Y-951640D02*
X12536670Y-978090D01*
X12564230Y-993960D01*
X12599670Y-999250D01*
X12635110Y-988670D01*
X12662660Y-967510D01*
X12682350Y-930460D01*
X12686280Y-888130D01*
X12678410Y-845800D01*
X12658720Y-819330D01*
X12631160Y-798170D01*
X12603610Y-792880D01*
X12576050Y-798170D01*
X12540620Y-819330D01*
X12552430Y-681750D01*
X12658720D01*
G01X12914630D02*
X12883130Y-692330D01*
X12859510Y-718790D01*
X12843760Y-750540D01*
X12831950Y-792880D01*
X12828020Y-840500D01*
X12831950Y-888130D01*
X12843760Y-930460D01*
X12859510Y-962220D01*
X12883130Y-988670D01*
X12914630Y-999250D01*
X12946120Y-988670D01*
X12969750Y-962220D01*
X12985500Y-930460D01*
X12997310Y-888130D01*
X13001240Y-840500D01*
X12997310Y-792880D01*
X12985500Y-750540D01*
X12969750Y-718790D01*
X12946120Y-692330D01*
X12914630Y-681750D01*
G01X13229590D02*
X13198090Y-692330D01*
X13174470Y-718790D01*
X13158720Y-750540D01*
X13146910Y-792880D01*
X13142980Y-840500D01*
X13146910Y-888130D01*
X13158720Y-930460D01*
X13174470Y-962220D01*
X13198090Y-988670D01*
X13229590Y-999250D01*
X13261080Y-988670D01*
X13284710Y-962220D01*
X13300460Y-930460D01*
X13312270Y-888130D01*
X13316200Y-840500D01*
X13312270Y-792880D01*
X13300460Y-750540D01*
X13284710Y-718790D01*
X13261080Y-692330D01*
X13229590Y-681750D01*
G01X13544550Y-999250D02*
Y-681750D01*
X13497310Y-745250D01*
G01Y-999250D02*
X13591790D01*
G01X10709910Y-364250D02*
Y-46750D01*
X10662670Y-110250D01*
G01Y-364250D02*
X10757150D01*
G01X11024870Y-374830D02*
X11016990Y-369540D01*
Y-358960D01*
X11024870Y-353670D01*
X11032750Y-358960D01*
Y-369540D01*
X11024870Y-374830D01*
G01X11339830Y-46750D02*
X11308330Y-57330D01*
X11284710Y-83790D01*
X11268960Y-115540D01*
X11257150Y-157880D01*
X11253220Y-205500D01*
X11257150Y-253130D01*
X11268960Y-295460D01*
X11284710Y-327220D01*
X11308330Y-353670D01*
X11339830Y-364250D01*
X11371320Y-353670D01*
X11394950Y-327220D01*
X11410700Y-295460D01*
X11422510Y-253130D01*
X11426440Y-205500D01*
X11422510Y-157880D01*
X11410700Y-115540D01*
X11394950Y-83790D01*
X11371320Y-57330D01*
X11339830Y-46750D01*
G01X11595740Y-152590D02*
X11713840Y-364250D01*
G01Y-152590D02*
X11595740Y-364250D01*
G01X11969750Y-46750D02*
X11938250Y-57330D01*
X11914630Y-83790D01*
X11898880Y-115540D01*
X11887070Y-157880D01*
X11883140Y-205500D01*
X11887070Y-253130D01*
X11898880Y-295460D01*
X11914630Y-327220D01*
X11938250Y-353670D01*
X11969750Y-364250D01*
X12001240Y-353670D01*
X12024870Y-327220D01*
X12040620Y-295460D01*
X12052430Y-253130D01*
X12056360Y-205500D01*
X12052430Y-157880D01*
X12040620Y-115540D01*
X12024870Y-83790D01*
X12001240Y-57330D01*
X11969750Y-46750D01*
G01X12284710Y-374830D02*
X12276830Y-369540D01*
Y-358960D01*
X12284710Y-353670D01*
X12292590Y-358960D01*
Y-369540D01*
X12284710Y-374830D01*
G01X12646910Y-364250D02*
Y-46750D01*
X12501240Y-274290D01*
X12698100D01*
G01X12828020Y-316640D02*
X12851630Y-343090D01*
X12879190Y-358960D01*
X12914630Y-364250D01*
X12950070Y-353670D01*
X12977620Y-332510D01*
X12997310Y-295460D01*
X13001240Y-253130D01*
X12993370Y-210800D01*
X12973680Y-184330D01*
X12946120Y-163170D01*
X12918570Y-157880D01*
X12891010Y-163170D01*
X12855580Y-184330D01*
X12867390Y-46750D01*
X12973680D01*
G01X13229590D02*
X13198090Y-57330D01*
X13174470Y-83790D01*
X13158720Y-115540D01*
X13146910Y-157880D01*
X13142980Y-205500D01*
X13146910Y-253130D01*
X13158720Y-295460D01*
X13174470Y-327220D01*
X13198090Y-353670D01*
X13229590Y-364250D01*
X13261080Y-353670D01*
X13284710Y-327220D01*
X13300460Y-295460D01*
X13312270Y-253130D01*
X13316200Y-205500D01*
X13312270Y-157880D01*
X13300460Y-115540D01*
X13284710Y-83790D01*
X13261080Y-57330D01*
X13229590Y-46750D01*
G01X13544550Y-364250D02*
Y-46750D01*
X13497310Y-110250D01*
G01Y-364250D02*
X13591790D01*
G01X11339830Y588250D02*
X11308330Y577670D01*
X11284710Y551210D01*
X11268960Y519460D01*
X11257150Y477120D01*
X11253220Y429500D01*
X11257150Y381870D01*
X11268960Y339540D01*
X11284710Y307780D01*
X11308330Y281330D01*
X11339830Y270750D01*
X11371320Y281330D01*
X11394950Y307780D01*
X11410700Y339540D01*
X11422510Y381870D01*
X11426440Y429500D01*
X11422510Y477120D01*
X11410700Y519460D01*
X11394950Y551210D01*
X11371320Y577670D01*
X11339830Y588250D01*
G01X11654790Y260170D02*
X11646910Y265460D01*
Y276040D01*
X11654790Y281330D01*
X11662670Y276040D01*
Y265460D01*
X11654790Y260170D01*
G01X11883140Y318360D02*
X11906750Y291910D01*
X11934310Y276040D01*
X11969750Y270750D01*
X12005190Y281330D01*
X12032740Y302490D01*
X12052430Y339540D01*
X12056360Y381870D01*
X12048490Y424200D01*
X12028800Y450670D01*
X12001240Y471830D01*
X11973690Y477120D01*
X11946130Y471830D01*
X11910700Y450670D01*
X11922510Y588250D01*
X12028800D01*
G01X12284710D02*
X12253210Y577670D01*
X12229590Y551210D01*
X12213840Y519460D01*
X12202030Y477120D01*
X12198100Y429500D01*
X12202030Y381870D01*
X12213840Y339540D01*
X12229590Y307780D01*
X12253210Y281330D01*
X12284710Y270750D01*
X12316200Y281330D01*
X12339830Y307780D01*
X12355580Y339540D01*
X12367390Y381870D01*
X12371320Y429500D01*
X12367390Y477120D01*
X12355580Y519460D01*
X12339830Y551210D01*
X12316200Y577670D01*
X12284710Y588250D01*
G01X12599670D02*
X12568170Y577670D01*
X12544550Y551210D01*
X12528800Y519460D01*
X12516990Y477120D01*
X12513060Y429500D01*
X12516990Y381870D01*
X12528800Y339540D01*
X12544550Y307780D01*
X12568170Y281330D01*
X12599670Y270750D01*
X12631160Y281330D01*
X12654790Y307780D01*
X12670540Y339540D01*
X12682350Y381870D01*
X12686280Y429500D01*
X12682350Y477120D01*
X12670540Y519460D01*
X12654790Y551210D01*
X12631160Y577670D01*
X12599670Y588250D01*
G01X12914630Y270750D02*
Y588250D01*
X12867390Y524750D01*
G01Y270750D02*
X12961870D01*
G01X11339830Y1223250D02*
X11308330Y1212670D01*
X11284710Y1186210D01*
X11268960Y1154460D01*
X11257150Y1112120D01*
X11253220Y1064500D01*
X11257150Y1016870D01*
X11268960Y974540D01*
X11284710Y942780D01*
X11308330Y916330D01*
X11339830Y905750D01*
X11371320Y916330D01*
X11394950Y942780D01*
X11410700Y974540D01*
X11422510Y1016870D01*
X11426440Y1064500D01*
X11422510Y1112120D01*
X11410700Y1154460D01*
X11394950Y1186210D01*
X11371320Y1212670D01*
X11339830Y1223250D01*
G01X11654790Y895170D02*
X11646910Y900460D01*
Y911040D01*
X11654790Y916330D01*
X11662670Y911040D01*
Y900460D01*
X11654790Y895170D01*
G01X11969750Y905750D02*
X11997310Y911040D01*
X12028800Y926910D01*
X12048490Y953360D01*
X12056360Y990420D01*
X12048490Y1027450D01*
X12024870Y1059200D01*
X11989430Y1075090D01*
X11950070D01*
X11926440Y1085670D01*
X11906750Y1112120D01*
X11898880Y1149160D01*
X11910700Y1186210D01*
X11938250Y1212670D01*
X11969750Y1223250D01*
X12001240Y1212670D01*
X12028800Y1186210D01*
X12040620Y1149160D01*
X12032740Y1112120D01*
X12013060Y1085670D01*
X11989430Y1075090D01*
X11950070D01*
X11914630Y1059200D01*
X11891010Y1027450D01*
X11883140Y990420D01*
X11891010Y953360D01*
X11910700Y926910D01*
X11942190Y911040D01*
X11969750Y905750D01*
G01X12217780Y942780D02*
X12245340Y916330D01*
X12276830Y905750D01*
X12308330Y916330D01*
X12335890Y948070D01*
X12355580Y995710D01*
X12363450Y1043330D01*
Y1101540D01*
X12355580Y1149160D01*
X12335890Y1191500D01*
X12312270Y1212670D01*
X12284710Y1223250D01*
X12253210Y1212670D01*
X12229590Y1191500D01*
X12213840Y1159750D01*
X12205970Y1117410D01*
X12213840Y1080380D01*
X12233530Y1043330D01*
X12257150Y1022160D01*
X12284710Y1016870D01*
X12316200Y1027450D01*
X12339830Y1053910D01*
X12363450Y1101540D01*
G01X12532740Y942780D02*
X12560300Y916330D01*
X12591790Y905750D01*
X12623290Y916330D01*
X12650850Y948070D01*
X12670540Y995710D01*
X12678410Y1043330D01*
Y1101540D01*
X12670540Y1149160D01*
X12650850Y1191500D01*
X12627230Y1212670D01*
X12599670Y1223250D01*
X12568170Y1212670D01*
X12544550Y1191500D01*
X12528800Y1159750D01*
X12520930Y1117410D01*
X12528800Y1080380D01*
X12548490Y1043330D01*
X12572110Y1022160D01*
X12599670Y1016870D01*
X12631160Y1027450D01*
X12654790Y1053910D01*
X12678410Y1101540D01*
G01X12847700Y942780D02*
X12875260Y916330D01*
X12906750Y905750D01*
X12938250Y916330D01*
X12965810Y948070D01*
X12985500Y995710D01*
X12993370Y1043330D01*
Y1101540D01*
X12985500Y1149160D01*
X12965810Y1191500D01*
X12942190Y1212670D01*
X12914630Y1223250D01*
X12883130Y1212670D01*
X12859510Y1191500D01*
X12843760Y1159750D01*
X12835890Y1117410D01*
X12843760Y1080380D01*
X12863450Y1043330D01*
X12887070Y1022160D01*
X12914630Y1016870D01*
X12946120Y1027450D01*
X12969750Y1053910D01*
X12993370Y1101540D01*
G01X11654790Y1858250D02*
X11623290Y1847670D01*
X11599670Y1821210D01*
X11583920Y1789460D01*
X11572110Y1747120D01*
X11568180Y1699500D01*
X11572110Y1651870D01*
X11583920Y1609540D01*
X11599670Y1577780D01*
X11623290Y1551330D01*
X11654790Y1540750D01*
X11686280Y1551330D01*
X11709910Y1577780D01*
X11725660Y1609540D01*
X11737470Y1651870D01*
X11741400Y1699500D01*
X11737470Y1747120D01*
X11725660Y1789460D01*
X11709910Y1821210D01*
X11686280Y1847670D01*
X11654790Y1858250D01*
G01X11969750Y1530170D02*
X11961870Y1535460D01*
Y1546040D01*
X11969750Y1551330D01*
X11977630Y1546040D01*
Y1535460D01*
X11969750Y1530170D01*
G01X12209900Y1805330D02*
X12233530Y1837080D01*
X12261090Y1852960D01*
X12292590Y1858250D01*
X12331950Y1847670D01*
X12359520Y1821210D01*
X12367390Y1789460D01*
X12363450Y1757700D01*
X12347700Y1731250D01*
X12268960Y1678330D01*
X12233530Y1641290D01*
X12209900Y1588360D01*
X12202030Y1540750D01*
X12367390D01*
G01X12513060Y1588360D02*
X12536670Y1561910D01*
X12564230Y1546040D01*
X12599670Y1540750D01*
X12635110Y1551330D01*
X12662660Y1572490D01*
X12682350Y1609540D01*
X12686280Y1651870D01*
X12678410Y1694200D01*
X12658720Y1720670D01*
X12631160Y1741830D01*
X12603610Y1747120D01*
X12576050Y1741830D01*
X12540620Y1720670D01*
X12552430Y1858250D01*
X12658720D01*
G01X14686280Y2652000D02*
Y-1158000D01*
G01X14792580Y270750D02*
Y588250D01*
X14973680Y270750D01*
Y588250D01*
G01X15198090Y270750D02*
X15166590Y276040D01*
X15139040Y297200D01*
X15115410Y328960D01*
X15099660Y366000D01*
X15091790Y408330D01*
Y450670D01*
X15099660Y493000D01*
X15115410Y530040D01*
X15139040Y561790D01*
X15166590Y582960D01*
X15198090Y588250D01*
X15229580Y582960D01*
X15257140Y561790D01*
X15280770Y530040D01*
X15296520Y493000D01*
X15304390Y450670D01*
Y408330D01*
X15296520Y366000D01*
X15280770Y328960D01*
X15257140Y297200D01*
X15229580Y276040D01*
X15198090Y270750D01*
G01X15422500D02*
Y588250D01*
X15603600Y270750D01*
Y588250D01*
G01X15776830Y376580D02*
X15879190D01*
G01X16064230Y270750D02*
Y588250D01*
X16158720D01*
X16190210Y572370D01*
X16213840Y535330D01*
X16221710Y493000D01*
X16213840Y450670D01*
X16194150Y418910D01*
X16158720Y403030D01*
X16064230D01*
G01X16379190Y588250D02*
Y270750D01*
X16536670D01*
G01X16674460D02*
X16772890Y588250D01*
X16871320Y270750D01*
G01X16835880Y381870D02*
X16709890D01*
G01X17087850Y588250D02*
Y270750D01*
G01X16997300Y588250D02*
X17178400D01*
G01X17481550Y270750D02*
X17324070D01*
Y588250D01*
X17481550D01*
G01X17418560Y434800D02*
X17324070D01*
G01X17631160Y270750D02*
Y588250D01*
X17709890D01*
X17741390Y572370D01*
X17765010Y551210D01*
X17784700Y519460D01*
X17800450Y482410D01*
X17804380Y429500D01*
X17800450Y376580D01*
X17784700Y339540D01*
X17765010Y307780D01*
X17741390Y286620D01*
X17709890Y270750D01*
X17631160D01*
G01X15434310Y-999250D02*
Y-681750D01*
X15528800D01*
X15560290Y-697630D01*
X15583920Y-734670D01*
X15591790Y-777000D01*
X15583920Y-819330D01*
X15564230Y-851090D01*
X15528800Y-866970D01*
X15434310D01*
G01X15749270Y-681750D02*
Y-999250D01*
X15906750D01*
G01X16044540D02*
X16142970Y-681750D01*
X16241400Y-999250D01*
G01X16205960Y-888130D02*
X16079970D01*
G01X16457930Y-681750D02*
Y-999250D01*
G01X16367380Y-681750D02*
X16548480D01*
G01X16851630Y-999250D02*
X16694150D01*
Y-681750D01*
X16851630D01*
G01X16788640Y-835200D02*
X16694150D01*
G01X17001240Y-999250D02*
Y-681750D01*
X17079970D01*
X17111470Y-697630D01*
X17135090Y-718790D01*
X17154780Y-750540D01*
X17170530Y-787590D01*
X17174460Y-840500D01*
X17170530Y-893420D01*
X17154780Y-930460D01*
X17135090Y-962220D01*
X17111470Y-983380D01*
X17079970Y-999250D01*
X17001240D01*
G01X15434310Y-364250D02*
Y-46750D01*
X15528800D01*
X15560290Y-62630D01*
X15583920Y-99670D01*
X15591790Y-142000D01*
X15583920Y-184330D01*
X15564230Y-216090D01*
X15528800Y-231970D01*
X15434310D01*
G01X15749270Y-46750D02*
Y-364250D01*
X15906750D01*
G01X16044540D02*
X16142970Y-46750D01*
X16241400Y-364250D01*
G01X16205960Y-253130D02*
X16079970D01*
G01X16457930Y-46750D02*
Y-364250D01*
G01X16367380Y-46750D02*
X16548480D01*
G01X16851630Y-364250D02*
X16694150D01*
Y-46750D01*
X16851630D01*
G01X16788640Y-200200D02*
X16694150D01*
G01X17001240Y-364250D02*
Y-46750D01*
X17079970D01*
X17111470Y-62630D01*
X17135090Y-83790D01*
X17154780Y-115540D01*
X17170530Y-152590D01*
X17174460Y-205500D01*
X17170530Y-258420D01*
X17154780Y-295460D01*
X17135090Y-327220D01*
X17111470Y-348380D01*
X17079970Y-364250D01*
X17001240D01*
G01X15434310Y905750D02*
Y1223250D01*
X15528800D01*
X15560290Y1207370D01*
X15583920Y1170330D01*
X15591790Y1128000D01*
X15583920Y1085670D01*
X15564230Y1053910D01*
X15528800Y1038030D01*
X15434310D01*
G01X15749270Y1223250D02*
Y905750D01*
X15906750D01*
G01X16044540D02*
X16142970Y1223250D01*
X16241400Y905750D01*
G01X16205960Y1016870D02*
X16079970D01*
G01X16457930Y1223250D02*
Y905750D01*
G01X16367380Y1223250D02*
X16548480D01*
G01X16851630Y905750D02*
X16694150D01*
Y1223250D01*
X16851630D01*
G01X16788640Y1069800D02*
X16694150D01*
G01X17001240Y905750D02*
Y1223250D01*
X17079970D01*
X17111470Y1207370D01*
X17135090Y1186210D01*
X17154780Y1154460D01*
X17170530Y1117410D01*
X17174460Y1064500D01*
X17170530Y1011580D01*
X17154780Y974540D01*
X17135090Y942780D01*
X17111470Y921620D01*
X17079970Y905750D01*
X17001240D01*
G01X15434310Y1540750D02*
Y1858250D01*
X15528800D01*
X15560290Y1842370D01*
X15583920Y1805330D01*
X15591790Y1763000D01*
X15583920Y1720670D01*
X15564230Y1688910D01*
X15528800Y1673030D01*
X15434310D01*
G01X15749270Y1858250D02*
Y1540750D01*
X15906750D01*
G01X16044540D02*
X16142970Y1858250D01*
X16241400Y1540750D01*
G01X16205960Y1651870D02*
X16079970D01*
G01X16457930Y1858250D02*
Y1540750D01*
G01X16367380Y1858250D02*
X16548480D01*
G01X16851630Y1540750D02*
X16694150D01*
Y1858250D01*
X16851630D01*
G01X16788640Y1704800D02*
X16694150D01*
G01X17001240Y1540750D02*
Y1858250D01*
X17079970D01*
X17111470Y1842370D01*
X17135090Y1821210D01*
X17154780Y1789460D01*
X17170530Y1752410D01*
X17174460Y1699500D01*
X17170530Y1646580D01*
X17154780Y1609540D01*
X17135090Y1577780D01*
X17111470Y1556620D01*
X17079970Y1540750D01*
X17001240D01*
G01X15434310Y2175750D02*
Y2493250D01*
X15528800D01*
X15560290Y2477370D01*
X15583920Y2440330D01*
X15591790Y2398000D01*
X15583920Y2355670D01*
X15564230Y2323910D01*
X15528800Y2308030D01*
X15434310D01*
G01X15749270Y2493250D02*
Y2175750D01*
X15906750D01*
G01X16044540D02*
X16142970Y2493250D01*
X16241400Y2175750D01*
G01X16205960Y2286870D02*
X16079970D01*
G01X16457930Y2493250D02*
Y2175750D01*
G01X16367380Y2493250D02*
X16548480D01*
G01X16851630Y2175750D02*
X16694150D01*
Y2493250D01*
X16851630D01*
G01X16788640Y2339800D02*
X16694150D01*
G01X17001240Y2175750D02*
Y2493250D01*
X17079970D01*
X17111470Y2477370D01*
X17135090Y2456210D01*
X17154780Y2424460D01*
X17170530Y2387410D01*
X17174460Y2334500D01*
X17170530Y2281580D01*
X17154780Y2244540D01*
X17135090Y2212780D01*
X17111470Y2191620D01*
X17079970Y2175750D01*
X17001240D01*
G01X17914620Y2652000D02*
Y-1158000D01*
G01X18654780Y953360D02*
X18678390Y926910D01*
X18705950Y911040D01*
X18741390Y905750D01*
X18776830Y916330D01*
X18804380Y937490D01*
X18824070Y974540D01*
X18828000Y1016870D01*
X18820130Y1059200D01*
X18800440Y1085670D01*
X18772880Y1106830D01*
X18745330Y1112120D01*
X18717770Y1106830D01*
X18682340Y1085670D01*
X18694150Y1223250D01*
X18800440D01*
G01X19056350D02*
X19024850Y1212670D01*
X19001230Y1186210D01*
X18985480Y1154460D01*
X18973670Y1112120D01*
X18969740Y1064500D01*
X18973670Y1016870D01*
X18985480Y974540D01*
X19001230Y942780D01*
X19024850Y916330D01*
X19056350Y905750D01*
X19087840Y916330D01*
X19111470Y942780D01*
X19127220Y974540D01*
X19139030Y1016870D01*
X19142960Y1064500D01*
X19139030Y1112120D01*
X19127220Y1154460D01*
X19111470Y1186210D01*
X19087840Y1212670D01*
X19056350Y1223250D01*
G01X18788630Y1540750D02*
Y1858250D01*
X18642960Y1630710D01*
X18839820D01*
G01X18969740Y1604250D02*
X18993350Y1567200D01*
X19024850Y1546040D01*
X19060290Y1540750D01*
X19091790Y1546040D01*
X19123280Y1572490D01*
X19142960Y1604250D01*
X19146900Y1636000D01*
X19139030Y1673030D01*
X19111470Y1699500D01*
X19083910Y1710090D01*
X19048470D01*
G01X19083910D02*
X19107530Y1725960D01*
X19127220Y1752410D01*
X19135090Y1784160D01*
X19127220Y1815920D01*
X19107530Y1842370D01*
X19072100Y1858250D01*
X19036670Y1852960D01*
X19001230Y1831790D01*
G01X18583910Y2175750D02*
X18552410Y2181040D01*
X18524860Y2202200D01*
X18501230Y2233960D01*
X18485480Y2271000D01*
X18477610Y2313330D01*
Y2355670D01*
X18485480Y2398000D01*
X18501230Y2435040D01*
X18524860Y2466790D01*
X18552410Y2487960D01*
X18583910Y2493250D01*
X18615400Y2487960D01*
X18642960Y2466790D01*
X18666590Y2435040D01*
X18682340Y2398000D01*
X18690210Y2355670D01*
Y2313330D01*
X18682340Y2271000D01*
X18666590Y2233960D01*
X18642960Y2202200D01*
X18615400Y2181040D01*
X18583910Y2175750D01*
G01X18615400Y2260420D02*
X18662650Y2175750D01*
G01X18898870Y2493250D02*
Y2175750D01*
G01X18808320Y2493250D02*
X18989420D01*
G01X19213830Y2175750D02*
Y2318620D01*
X19135090Y2493250D01*
G01X19292570D02*
X19213830Y2318620D01*
G01X18824060Y-734670D02*
X18847690Y-702920D01*
X18875250Y-687040D01*
X18906750Y-681750D01*
X18946110Y-692330D01*
X18973680Y-718790D01*
X18981550Y-750540D01*
X18977610Y-782300D01*
X18961860Y-808750D01*
X18883120Y-861670D01*
X18847690Y-898710D01*
X18824060Y-951640D01*
X18816190Y-999250D01*
X18981550D01*
G01X18824060Y-99670D02*
X18847690Y-67920D01*
X18875250Y-52040D01*
X18906750Y-46750D01*
X18946110Y-57330D01*
X18973680Y-83790D01*
X18981550Y-115540D01*
X18977610Y-147300D01*
X18961860Y-173750D01*
X18883120Y-226670D01*
X18847690Y-263710D01*
X18824060Y-316640D01*
X18816190Y-364250D01*
X18981550D01*
G01X18824060Y535330D02*
X18847690Y567080D01*
X18875250Y582960D01*
X18906750Y588250D01*
X18946110Y577670D01*
X18973680Y551210D01*
X18981550Y519460D01*
X18977610Y487700D01*
X18961860Y461250D01*
X18883120Y408330D01*
X18847690Y371290D01*
X18824060Y318360D01*
X18816190Y270750D01*
X18981550D01*
M02*
