G04 ================== begin FILE IDENTIFICATION RECORD ==================*
G04 Layout Name:  E:/Projects/XRBB/SC-STM/BoardV2/SC-STM.brd*
G04 Film Name:    PASTEMASK_BOTTOM*
G04 File Format:  Gerber RS274X*
G04 File Origin:  Cadence Allegro 17.2-S026*
G04 Origin Date:  Mon Jul 22 20:40:11 2019*
G04 *
G04 Layer:  VIA CLASS/PASTEMASK_BOTTOM*
G04 Layer:  PIN/PASTEMASK_BOTTOM*
G04 Layer:  PACKAGE GEOMETRY/PASTEMASK_BOTTOM*
G04 Layer:  BOARD GEOMETRY/OUTLINE*
G04 *
G04 Offset:    (0.0000 0.0000)*
G04 Mirror:    No*
G04 Mode:      Positive*
G04 Rotation:  0*
G04 FullContactRelief:  No*
G04 UndefLineWidth:     0.1270*
G04 ================== end FILE IDENTIFICATION RECORD ====================*
%FSLAX25Y25*MOMM*%
%IR0*IPPOS*OFA0.00000B0.00000*MIA0B0*SFA1.00000B1.00000*%
%ADD16C,.4*%
%ADD19R,.8999X1.*%
%ADD10R,1.X.8999*%
%ADD11O,2.X1.05*%
%ADD15R,1.5001X1.*%
%ADD14C,1.5001*%
%ADD18R,1.5001X1.5001*%
%ADD13R,1.5999X2.*%
%ADD17R,1.5001X3.2799*%
%ADD12O,1.5999X1.05*%
%ADD20C,.1*%
G75*
%LPD*%
G75*
G54D10*
X440520Y497840D03*
X260520D03*
X440520Y2552700D03*
X260520D03*
X2594780Y2245360D03*
X2774780D03*
X2594780Y2067560D03*
X2774780D03*
X3440000Y1350000D03*
X3260000D03*
X3440000Y1510000D03*
X3260000D03*
Y1670000D03*
X3440000D03*
G54D20*
G01X300000Y0D02*
X6200000D01*
G03X6500000Y300000I0J300000D01*
G01Y2700000D01*
G03X6200000Y3000000I-300000J0D01*
G01X300000D01*
G03X0Y2700000I0J-300000D01*
G01Y300000D01*
G03X300000Y0I300000J0D01*
G54D11*
X210000Y1140000D03*
Y1860000D03*
G54D12*
X555000Y1140000D03*
Y1860000D03*
G54D13*
X281960Y764540D03*
X261640Y2240280D03*
X601960Y764540D03*
X581640Y2240280D03*
G54D14*
X1091000Y357000D03*
X837000D03*
X1091000Y2643000D03*
X837000D03*
X1599000Y357000D03*
X1345000D03*
X1600200Y1920240D03*
Y2174240D03*
X1599000Y2643000D03*
X1345000D03*
X2361000Y357000D03*
X2107000D03*
X1853000D03*
X1854200Y1920240D03*
Y2174240D03*
X2108200Y1920240D03*
X2361000Y2643000D03*
X2107000D03*
X1853000D03*
X2869000Y357000D03*
X2615000D03*
X2869000Y2643000D03*
X2615000D03*
X3377000Y357000D03*
X3123000D03*
X3377000Y2643000D03*
X3123000D03*
X4139000Y357000D03*
X3885000D03*
X3631000D03*
X4139000Y2643000D03*
X3885000D03*
X3631000D03*
X4647000Y357000D03*
X4393000D03*
X4647000Y2643000D03*
X4393000D03*
X5409000Y357000D03*
X5155000D03*
X4901000D03*
X5409000Y2643000D03*
X5155000D03*
X4901000D03*
X5663000Y357000D03*
Y2643000D03*
X6100000Y1627000D03*
Y1373000D03*
Y1881000D03*
G54D15*
X965160Y1112520D03*
Y1569720D03*
Y1341120D03*
G54D16*
X731520Y1013460D03*
X677080Y2076280D03*
X2118360Y1501140D03*
X2192020Y1483360D03*
X2290340Y1475000D03*
X1863090Y1563370D03*
X1900360Y1526100D03*
X1992630Y1530350D03*
X2029900Y1493080D03*
X2608580Y784860D03*
X2933700Y876300D03*
X2580640Y1310640D03*
X2395220Y1425000D03*
X2463800Y1375000D03*
X2405800Y1132420D03*
X2672080Y1927860D03*
X3281680Y680720D03*
X3299460Y746760D03*
X3317240Y810260D03*
X3375000Y885800D03*
X3425000Y949960D03*
X3091180Y1505780D03*
X3119120Y1252220D03*
X3258820Y1775460D03*
X3175000Y2209800D03*
X3977640Y1600200D03*
X4043680Y1137920D03*
X3970020Y1524000D03*
X3987800Y1694180D03*
X4107180Y1945640D03*
X4650740Y980000D03*
X4315460Y1310640D03*
Y1127760D03*
X4577080Y1135380D03*
X4297680Y2159000D03*
X4452620Y2313940D03*
X4772660Y1600200D03*
Y1780540D03*
X4775200Y1935480D03*
X5466080Y1605280D03*
X5580380Y1409700D03*
X5455920Y1945640D03*
X5646420Y2151380D03*
G54D17*
X1595160Y1341120D03*
G54D18*
X2108200Y2174240D03*
X6100000Y1119000D03*
G54D19*
X2560320Y1133940D03*
Y953940D03*
X2730500Y1133940D03*
Y953940D03*
M02*
