G04 ================== begin FILE IDENTIFICATION RECORD ==================*
G04 Layout Name:  E:/Projects/XRBB/SC-STM/BoardV2/SC-STM.brd*
G04 Film Name:    SILKSCREEN_BOTTOM*
G04 File Format:  Gerber RS274X*
G04 File Origin:  Cadence Allegro 17.2-S026*
G04 Origin Date:  Mon Jul 22 20:40:11 2019*
G04 *
G04 Layer:  REF DES/SILKSCREEN_BOTTOM*
G04 Layer:  PACKAGE GEOMETRY/SILKSCREEN_BOTTOM*
G04 Layer:  BOARD GEOMETRY/OUTLINE*
G04 Layer:  BOARD GEOMETRY/SILKSCREEN_BOTTOM*
G04 *
G04 Offset:    (0.0000 0.0000)*
G04 Mirror:    No*
G04 Mode:      Positive*
G04 Rotation:  0*
G04 FullContactRelief:  No*
G04 UndefLineWidth:     0.1270*
G04 ================== end FILE IDENTIFICATION RECORD ====================*
%FSLAX25Y25*MOMM*%
%IR0*IPPOS*OFA0.00000B0.00000*MIA0B0*SFA1.00000B1.00000*%
%ADD10C,.1*%
%ADD11C,.254*%
%ADD12C,.127*%
G75*
%LPD*%
G75*
G54D10*
G01X300000Y0D02*
X6200000D01*
G03X6500000Y300000I0J300000D01*
G01Y2700000D01*
G03X6200000Y3000000I-300000J0D01*
G01X300000D01*
G03X0Y2700000I0J-300000D01*
G01Y300000D01*
G03X300000Y0I300000J0D01*
G01X390520Y432840D02*
X510520D01*
Y562840D01*
X390520D01*
G01X310520Y432840D02*
X190520D01*
Y562840D01*
X310520D01*
G01X361960Y644540D02*
X181960D01*
Y884540D01*
X361960D01*
G01X341640Y2120280D02*
X161640D01*
Y2360280D01*
X341640D01*
G01X390520Y2487700D02*
X510520D01*
Y2617700D01*
X390520D01*
G01X310520Y2487700D02*
X190520D01*
Y2617700D01*
X310520D01*
G01X521960Y884540D02*
X701960D01*
Y644540D01*
X521960D01*
G01X501640Y2360280D02*
X681640D01*
Y2120280D01*
X501640D01*
G01X1460160Y1016120D02*
X1100160D01*
Y1666120D01*
X1460160D01*
Y1016120D01*
G01X2625320Y1083940D02*
Y1203940D01*
X2495320D01*
Y1083940D01*
G01X2625320Y1003940D02*
Y883940D01*
X2495320D01*
Y1003940D01*
G01X2795500Y883940D02*
X2665500D01*
Y1203940D01*
X2795500D01*
Y883940D01*
G01X2844780Y2310360D02*
Y2180360D01*
X2524780D01*
Y2310360D01*
X2844780D01*
G01Y2132560D02*
Y2002560D01*
X2524780D01*
Y2132560D01*
X2844780D01*
G01X3390000Y1285000D02*
X3510000D01*
Y1415000D01*
X3390000D01*
G01X3310000Y1285000D02*
X3190000D01*
Y1415000D01*
X3310000D01*
G01X3390000Y1445000D02*
X3510000D01*
Y1575000D01*
X3390000D01*
G01X3310000Y1445000D02*
X3190000D01*
Y1575000D01*
X3310000D01*
G01X3510000Y1735000D02*
Y1605000D01*
X3190000D01*
Y1735000D01*
X3510000D01*
G54D11*
G01X5052060Y998220D02*
Y993140D01*
G01X5057140Y1008380D02*
Y988060D01*
G01X5062220Y1018540D02*
Y982980D01*
G01X5067300Y1084580D02*
Y1074420D01*
G01Y1028700D02*
Y977900D01*
G01X5072380Y1089660D02*
Y1069340D01*
G01Y1038860D02*
Y972820D01*
G01X5077460Y1094740D02*
Y1069340D01*
G01Y1049020D02*
Y967740D01*
G01X5082540Y1099820D02*
Y1023620D01*
G01X5087620Y1104900D02*
Y1064260D01*
G01X5092700Y1094740D02*
Y1064260D01*
G01X5097780Y1094740D02*
Y1064260D01*
G01X5102860Y1094740D02*
Y1064260D01*
G01X5107940Y1094740D02*
Y1064260D01*
G01X5113020Y1130300D02*
Y1099820D01*
G01Y1094740D02*
Y1064260D01*
G01X5118100Y1130300D02*
Y1099820D01*
G01Y1094740D02*
Y1064260D01*
G01Y993140D02*
Y988060D01*
G01X5123180Y1094740D02*
Y1064260D01*
G01Y993140D02*
Y982980D01*
G01X5128260Y1094740D02*
Y1064260D01*
G01Y998220D02*
Y977900D01*
G01X5133340Y1094740D02*
Y1064260D01*
G01Y1008380D02*
Y972820D01*
G01X5138420Y1094740D02*
Y1064260D01*
G01Y1059180D02*
Y1049020D01*
G01Y1013460D02*
Y962660D01*
G01X5143500Y1094740D02*
Y1064260D01*
G01Y1054100D02*
Y1049020D01*
G01Y1008380D02*
Y967740D01*
G01X5148580Y1094740D02*
Y1069340D01*
G01Y1054100D02*
Y1049020D01*
G01Y1008380D02*
Y972820D01*
G01X5153660Y1094740D02*
Y1069340D01*
G01Y1054100D02*
Y1049020D01*
G01Y1008380D02*
Y977900D01*
G01X5158740Y1094740D02*
Y1069340D01*
G01Y1054100D02*
Y1049020D01*
G01Y1013460D02*
Y982980D01*
G01X5163820Y1094740D02*
Y1069340D01*
G01Y1054100D02*
Y1049020D01*
G01Y1013460D02*
Y982980D01*
G01X5168900Y1094740D02*
Y1069340D01*
G01Y1054100D02*
Y1043940D01*
G01Y1013460D02*
Y982980D01*
G01X5173980Y1094740D02*
Y1069340D01*
G01Y1054100D02*
Y1043940D01*
G01Y1018540D02*
Y988060D01*
G01X5179060Y1094740D02*
Y1069340D01*
G01Y1054100D02*
Y1043940D01*
G01Y1018540D02*
Y988060D01*
G01X5184140Y1094740D02*
Y1069340D01*
G01Y1054100D02*
Y1043940D01*
G01Y1018540D02*
Y993140D01*
G01X5189220Y1094740D02*
Y1069340D01*
G01Y1054100D02*
Y1038860D01*
G01Y1023620D02*
Y993140D01*
G01X5194300Y1094740D02*
Y1069340D01*
G01Y1049020D02*
Y1038860D01*
G01Y1023620D02*
Y993140D01*
G01X5199380Y1094740D02*
Y1074420D01*
G01Y1049020D02*
Y1038860D01*
G01Y1023620D02*
Y998220D01*
G01X5204460Y1099820D02*
Y1074420D01*
G01Y1049020D02*
Y1033780D01*
G01Y1028700D02*
Y998220D01*
G01X5209540Y1099820D02*
Y1074420D01*
G01Y1049020D02*
Y1003300D01*
G01X5214620Y1099820D02*
Y1074420D01*
G01Y1049020D02*
Y1003300D01*
G01X5219700Y1099820D02*
Y1079500D01*
G01Y1043940D02*
Y1008380D01*
G01X5224780Y1099820D02*
Y1079500D01*
G01Y1043940D02*
Y1008380D01*
G01X5229860Y1099820D02*
Y1079500D01*
G01Y1043940D02*
Y1013460D01*
G01X5234940Y1104900D02*
Y1084580D01*
G01Y1043940D02*
Y1013460D01*
G01X5240020Y1104900D02*
Y1084580D01*
G01Y1043940D02*
Y1003300D01*
G01X5245100Y1104900D02*
Y1084580D01*
G01Y1049020D02*
Y998220D01*
G01X5250180Y1104900D02*
Y1089660D01*
G01Y1054100D02*
Y988060D01*
G01X5255260Y1109980D02*
Y1089660D01*
G01Y1059180D02*
Y977900D01*
G01X5260340Y1109980D02*
Y1094740D01*
G01Y1064260D02*
Y1033780D01*
G01Y1023620D02*
Y967740D01*
G01X5265420Y1109980D02*
Y1099820D01*
G01Y1069340D02*
Y1038860D01*
G01Y1023620D02*
Y957580D01*
G01X5270500Y1115060D02*
Y1099820D01*
G01Y1074420D02*
Y1043940D01*
G01Y1018540D02*
Y962660D01*
G01X5275580Y1079500D02*
Y1054100D01*
G01Y1013460D02*
Y967740D01*
G01X5280660Y1084580D02*
Y1064260D01*
G01Y1008380D02*
Y977900D01*
G01X5285740Y1089660D02*
Y1074420D01*
G01Y998220D02*
Y977900D01*
G01X5290820Y1099820D02*
Y1084580D01*
G01Y993140D02*
Y982980D01*
G01X5046980Y1689100D02*
Y1684020D01*
G01Y1155700D02*
Y1150620D01*
G01X5052060Y1689100D02*
Y1673860D01*
G01Y1455420D02*
Y1435100D01*
G01Y1292860D02*
Y1282700D01*
G01Y1160780D02*
Y1140460D01*
G01X5057140Y1689100D02*
Y1663700D01*
G01Y1455420D02*
Y1430020D01*
G01Y1297940D02*
Y1277620D01*
G01Y1160780D02*
Y1135380D01*
G01Y1125220D02*
Y1120140D01*
G01X5062220Y1689100D02*
Y1643380D01*
G01Y1455420D02*
Y1409700D01*
G01Y1308100D02*
Y1272540D01*
G01Y1165860D02*
Y1120140D01*
G01X5067300Y1689100D02*
Y1643380D01*
G01Y1460500D02*
Y1409700D01*
G01Y1379220D02*
Y1369060D01*
G01Y1318260D02*
Y1267460D01*
G01Y1165860D02*
Y1120140D01*
G01X5072380Y1689100D02*
Y1648460D01*
G01Y1445260D02*
Y1414780D01*
G01Y1384300D02*
Y1363980D01*
G01Y1333500D02*
Y1262380D01*
G01Y1150620D02*
Y1120140D01*
G01X5077460Y1689100D02*
Y1648460D01*
G01Y1460500D02*
Y1455420D01*
G01Y1435100D02*
Y1419860D01*
G01Y1389380D02*
Y1358900D01*
G01Y1343660D02*
Y1257300D01*
G01Y1145540D02*
Y1125220D01*
G01X5082540Y1689100D02*
Y1653540D01*
G01Y1460500D02*
Y1455420D01*
G01Y1394460D02*
Y1318260D01*
G01Y1165860D02*
Y1160780D01*
G01X5087620Y1689100D02*
Y1653540D01*
G01Y1460500D02*
Y1450340D01*
G01Y1399540D02*
Y1358900D01*
G01Y1165860D02*
Y1155700D01*
G01X5092700Y1689100D02*
Y1653540D01*
G01Y1460500D02*
Y1440180D01*
G01Y1389380D02*
Y1358900D01*
G01Y1165860D02*
Y1145540D01*
G01X5097780Y1689100D02*
Y1653540D01*
G01Y1460500D02*
Y1435100D01*
G01Y1409700D02*
Y1404620D01*
G01Y1384300D02*
Y1358900D01*
G01Y1165860D02*
Y1140460D01*
G01X5102860Y1689100D02*
Y1653540D01*
G01Y1460500D02*
Y1435100D01*
G01Y1414780D02*
Y1404620D01*
G01Y1384300D02*
Y1358900D01*
G01Y1165860D02*
Y1140460D01*
G01Y1120140D02*
Y1109980D01*
G01X5107940Y1689100D02*
Y1653540D01*
G01Y1460500D02*
Y1435100D01*
G01Y1419860D02*
Y1399540D01*
G01Y1384300D02*
Y1358900D01*
G01Y1165860D02*
Y1140460D01*
G01Y1125220D02*
Y1104900D01*
G01X5113020Y1689100D02*
Y1653540D01*
G01Y1460500D02*
Y1435100D01*
G01Y1424940D02*
Y1389380D01*
G01Y1384300D02*
Y1358900D01*
G01Y1165860D02*
Y1140460D01*
G01X5118100Y1689100D02*
Y1648460D01*
G01Y1460500D02*
Y1435100D01*
G01Y1424940D02*
Y1358900D01*
G01Y1170940D02*
Y1140460D01*
G01X5123180Y1689100D02*
Y1648460D01*
G01Y1460500D02*
Y1435100D01*
G01Y1419860D02*
Y1399540D01*
G01Y1384300D02*
Y1358900D01*
G01Y1287780D02*
Y1277620D01*
G01Y1170940D02*
Y1140460D01*
G01Y1125220D02*
Y1104900D01*
G01X5128260Y1689100D02*
Y1648460D01*
G01Y1460500D02*
Y1435100D01*
G01Y1414780D02*
Y1404620D01*
G01Y1384300D02*
Y1358900D01*
G01Y1292860D02*
Y1272540D01*
G01Y1170940D02*
Y1140460D01*
G01Y1120140D02*
Y1109980D01*
G01X5133340Y1694180D02*
Y1658620D01*
G01Y1653540D02*
Y1648460D01*
G01Y1465580D02*
Y1435100D01*
G01Y1409700D02*
Y1404620D01*
G01Y1384300D02*
Y1358900D01*
G01Y1303020D02*
Y1267460D01*
G01Y1170940D02*
Y1140460D01*
G01X5138420Y1694180D02*
Y1658620D01*
G01Y1653540D02*
Y1643380D01*
G01Y1465580D02*
Y1435100D01*
G01Y1389380D02*
Y1358900D01*
G01Y1348740D02*
Y1343660D01*
G01Y1308100D02*
Y1257300D01*
G01Y1170940D02*
Y1140460D01*
G01X5143500Y1694180D02*
Y1658620D01*
G01Y1653540D02*
Y1643380D01*
G01Y1465580D02*
Y1435100D01*
G01Y1389380D02*
Y1358900D01*
G01Y1348740D02*
Y1343660D01*
G01Y1303020D02*
Y1262380D01*
G01Y1170940D02*
Y1140460D01*
G01X5148580Y1694180D02*
Y1663700D01*
G01Y1653540D02*
Y1643380D01*
G01Y1465580D02*
Y1435100D01*
G01Y1389380D02*
Y1358900D01*
G01Y1348740D02*
Y1343660D01*
G01Y1303020D02*
Y1267460D01*
G01Y1176020D02*
Y1140460D01*
G01Y1135380D02*
Y1130300D01*
G01X5153660Y1694180D02*
Y1663700D01*
G01Y1653540D02*
Y1643380D01*
G01Y1470660D02*
Y1435100D01*
G01Y1424940D02*
Y1419860D01*
G01Y1389380D02*
Y1358900D01*
G01Y1348740D02*
Y1343660D01*
G01Y1303020D02*
Y1272540D01*
G01Y1176020D02*
Y1140460D01*
G01Y1130300D02*
Y1125220D01*
G01X5158740Y1694180D02*
Y1663700D01*
G01Y1648460D02*
Y1638300D01*
G01Y1470660D02*
Y1435100D01*
G01Y1424940D02*
Y1409700D01*
G01Y1389380D02*
Y1358900D01*
G01Y1348740D02*
Y1343660D01*
G01Y1303020D02*
Y1272540D01*
G01Y1176020D02*
Y1140460D01*
G01Y1130300D02*
Y1120140D01*
G01X5163820Y1694180D02*
Y1663700D01*
G01Y1648460D02*
Y1638300D01*
G01Y1470660D02*
Y1435100D01*
G01Y1424940D02*
Y1404620D01*
G01Y1389380D02*
Y1358900D01*
G01Y1348740D02*
Y1338580D01*
G01Y1308100D02*
Y1277620D01*
G01Y1176020D02*
Y1140460D01*
G01Y1130300D02*
Y1115060D01*
G01X5168900Y1699260D02*
Y1668780D01*
G01Y1648460D02*
Y1633220D01*
G01Y1470660D02*
Y1435100D01*
G01Y1424940D02*
Y1404620D01*
G01Y1389380D02*
Y1358900D01*
G01Y1348740D02*
Y1338580D01*
G01Y1308100D02*
Y1277620D01*
G01Y1181100D02*
Y1140460D01*
G01Y1130300D02*
Y1109980D01*
G01X5173980Y1699260D02*
Y1668780D01*
G01Y1648460D02*
Y1633220D01*
G01Y1475740D02*
Y1435100D01*
G01Y1419860D02*
Y1399540D01*
G01Y1389380D02*
Y1363980D01*
G01Y1348740D02*
Y1338580D01*
G01Y1308100D02*
Y1282700D01*
G01Y1181100D02*
Y1140460D01*
G01Y1130300D02*
Y1104900D01*
G01X5179060Y1699260D02*
Y1668780D01*
G01Y1648460D02*
Y1633220D01*
G01Y1475740D02*
Y1435100D01*
G01Y1419860D02*
Y1399540D01*
G01Y1389380D02*
Y1363980D01*
G01Y1348740D02*
Y1338580D01*
G01Y1313180D02*
Y1282700D01*
G01Y1181100D02*
Y1140460D01*
G01Y1130300D02*
Y1104900D01*
G01X5184140Y1699260D02*
Y1668780D01*
G01Y1648460D02*
Y1628140D01*
G01Y1475740D02*
Y1435100D01*
G01Y1419860D02*
Y1399540D01*
G01Y1389380D02*
Y1363980D01*
G01Y1343660D02*
Y1333500D01*
G01Y1313180D02*
Y1282700D01*
G01Y1186180D02*
Y1140460D01*
G01Y1130300D02*
Y1104900D01*
G01X5189220Y1704340D02*
Y1673860D01*
G01Y1643380D02*
Y1623060D01*
G01Y1480820D02*
Y1435100D01*
G01Y1414780D02*
Y1399540D01*
G01Y1389380D02*
Y1363980D01*
G01Y1343660D02*
Y1333500D01*
G01Y1313180D02*
Y1287780D01*
G01Y1186180D02*
Y1140460D01*
G01Y1125220D02*
Y1109980D01*
G01X5194300Y1704340D02*
Y1673860D01*
G01Y1643380D02*
Y1623060D01*
G01Y1480820D02*
Y1465580D01*
G01Y1460500D02*
Y1435100D01*
G01Y1389380D02*
Y1363980D01*
G01Y1343660D02*
Y1333500D01*
G01Y1318260D02*
Y1287780D01*
G01Y1186180D02*
Y1140460D01*
G01Y1115060D02*
Y1109980D01*
G01X5199380Y1704340D02*
Y1678940D01*
G01Y1643380D02*
Y1617980D01*
G01Y1485900D02*
Y1465580D01*
G01Y1460500D02*
Y1435100D01*
G01Y1389380D02*
Y1363980D01*
G01Y1343660D02*
Y1328420D01*
G01Y1318260D02*
Y1292860D01*
G01Y1191260D02*
Y1176020D01*
G01Y1165860D02*
Y1140460D01*
G01X5204460Y1709420D02*
Y1678940D01*
G01Y1643380D02*
Y1612900D01*
G01Y1485900D02*
Y1470660D01*
G01Y1460500D02*
Y1435100D01*
G01Y1389380D02*
Y1369060D01*
G01Y1343660D02*
Y1328420D01*
G01Y1318260D02*
Y1292860D01*
G01Y1191260D02*
Y1176020D01*
G01Y1165860D02*
Y1140460D01*
G01X5209540Y1709420D02*
Y1684020D01*
G01Y1638300D02*
Y1607820D01*
G01Y1485900D02*
Y1475740D01*
G01Y1460500D02*
Y1435100D01*
G01Y1389380D02*
Y1369060D01*
G01Y1338580D02*
Y1292860D01*
G01Y1196340D02*
Y1181100D01*
G01Y1165860D02*
Y1140460D01*
G01X5214620Y1714500D02*
Y1684020D01*
G01Y1638300D02*
Y1602740D01*
G01Y1490980D02*
Y1475740D01*
G01Y1460500D02*
Y1435100D01*
G01Y1394460D02*
Y1369060D01*
G01Y1338580D02*
Y1297940D01*
G01Y1196340D02*
Y1186180D01*
G01Y1165860D02*
Y1140460D01*
G01X5219700Y1714500D02*
Y1689100D01*
G01Y1633220D02*
Y1597660D01*
G01Y1490980D02*
Y1480820D01*
G01Y1460500D02*
Y1435100D01*
G01Y1394460D02*
Y1369060D01*
G01Y1338580D02*
Y1297940D01*
G01Y1201420D02*
Y1186180D01*
G01Y1165860D02*
Y1140460D01*
G01X5224780Y1719580D02*
Y1689100D01*
G01Y1633220D02*
Y1592580D01*
G01Y1496060D02*
Y1485900D01*
G01Y1460500D02*
Y1435100D01*
G01Y1394460D02*
Y1374140D01*
G01Y1338580D02*
Y1303020D01*
G01Y1201420D02*
Y1191260D01*
G01Y1165860D02*
Y1140460D01*
G01X5229860Y1719580D02*
Y1694180D01*
G01Y1628140D02*
Y1587500D01*
G01Y1496060D02*
Y1490980D01*
G01Y1460500D02*
Y1435100D01*
G01Y1394460D02*
Y1374140D01*
G01Y1333500D02*
Y1303020D01*
G01Y1206500D02*
Y1196340D01*
G01Y1165860D02*
Y1140460D01*
G01X5234940Y1724660D02*
Y1699260D01*
G01Y1628140D02*
Y1582420D01*
G01Y1501140D02*
Y1496060D01*
G01Y1460500D02*
Y1435100D01*
G01Y1394460D02*
Y1374140D01*
G01Y1333500D02*
Y1303020D01*
G01Y1206500D02*
Y1201420D01*
G01Y1165860D02*
Y1140460D01*
G01X5240020Y1729740D02*
Y1704340D01*
G01Y1623060D02*
Y1577340D01*
G01Y1506220D02*
Y1501140D01*
G01Y1460500D02*
Y1435100D01*
G01Y1399540D02*
Y1379220D01*
G01Y1338580D02*
Y1297940D01*
G01Y1165860D02*
Y1140460D01*
G01X5245100Y1729740D02*
Y1709420D01*
G01Y1617980D02*
Y1567180D01*
G01Y1460500D02*
Y1435100D01*
G01Y1399540D02*
Y1379220D01*
G01Y1343660D02*
Y1287780D01*
G01Y1165860D02*
Y1140460D01*
G01X5250180Y1617980D02*
Y1562100D01*
G01Y1460500D02*
Y1435100D01*
G01Y1399540D02*
Y1384300D01*
G01Y1348740D02*
Y1282700D01*
G01Y1165860D02*
Y1140460D01*
G01X5255260Y1612900D02*
Y1551940D01*
G01Y1460500D02*
Y1435100D01*
G01Y1399540D02*
Y1384300D01*
G01Y1353820D02*
Y1272540D01*
G01Y1165860D02*
Y1140460D01*
G01X5260340Y1607820D02*
Y1541780D01*
G01Y1460500D02*
Y1435100D01*
G01Y1404620D02*
Y1389380D01*
G01Y1358900D02*
Y1328420D01*
G01Y1318260D02*
Y1262380D01*
G01Y1165860D02*
Y1140460D01*
G01X5265420Y1602740D02*
Y1546860D01*
G01Y1460500D02*
Y1430020D01*
G01Y1404620D02*
Y1389380D01*
G01Y1363980D02*
Y1333500D01*
G01Y1313180D02*
Y1252220D01*
G01Y1165860D02*
Y1140460D01*
G01X5270500Y1597660D02*
Y1557020D01*
G01Y1460500D02*
Y1430020D01*
G01Y1404620D02*
Y1394460D01*
G01Y1369060D02*
Y1338580D01*
G01Y1308100D02*
Y1252220D01*
G01Y1165860D02*
Y1140460D01*
G01X5275580Y1592580D02*
Y1567180D01*
G01Y1465580D02*
Y1430020D01*
G01Y1409700D02*
Y1399540D01*
G01Y1374140D02*
Y1348740D01*
G01Y1303020D02*
Y1262380D01*
G01Y1170940D02*
Y1135380D01*
G01Y1115060D02*
Y1104900D01*
G01X5280660Y1587500D02*
Y1572260D01*
G01Y1460500D02*
Y1430020D01*
G01Y1409700D02*
Y1404620D01*
G01Y1379220D02*
Y1353820D01*
G01Y1297940D02*
Y1267460D01*
G01Y1165860D02*
Y1140460D01*
G01Y1120140D02*
Y1109980D01*
G01X5285740Y1582420D02*
Y1577340D01*
G01Y1455420D02*
Y1435100D01*
G01Y1414780D02*
Y1409700D01*
G01Y1384300D02*
Y1363980D01*
G01Y1292860D02*
Y1272540D01*
G01Y1165860D02*
Y1145540D01*
G01Y1120140D02*
Y1115060D01*
G01X5290820Y1455420D02*
Y1440180D01*
G01Y1419860D02*
Y1414780D01*
G01Y1394460D02*
Y1379220D01*
G01Y1287780D02*
Y1277620D01*
G01Y1160780D02*
Y1145540D01*
G01X5295900Y1450340D02*
Y1440180D01*
G01Y1399540D02*
Y1394460D01*
G01Y1155700D02*
Y1150620D01*
G01Y1109980D02*
Y1104900D01*
G01X5300980Y1450340D02*
Y1445260D01*
G01Y1155700D02*
Y1150620D01*
G01X5041900Y1938020D02*
Y1932940D01*
G01X5046980Y2039620D02*
Y2034540D01*
G01Y1938020D02*
Y1927860D01*
G01X5052060Y2039620D02*
Y2029460D01*
G01Y1938020D02*
Y1922780D01*
G01X5057140Y2039620D02*
Y2009140D01*
G01Y1938020D02*
Y1912620D01*
G01X5062220Y2044700D02*
Y2009140D01*
G01Y1938020D02*
Y1897380D01*
G01X5067300Y2044700D02*
Y2009140D01*
G01Y1938020D02*
Y1902460D01*
G01X5072380Y2044700D02*
Y2009140D01*
G01Y1938020D02*
Y1902460D01*
G01X5077460Y2044700D02*
Y2014220D01*
G01Y1938020D02*
Y1907540D01*
G01X5082540Y2049780D02*
Y2014220D01*
G01Y1938020D02*
Y1907540D01*
G01X5087620Y2049780D02*
Y2019300D01*
G01Y1938020D02*
Y1907540D01*
G01X5092700Y2049780D02*
Y2019300D01*
G01Y1938020D02*
Y1907540D01*
G01X5097780Y2049780D02*
Y2024380D01*
G01Y1938020D02*
Y1907540D01*
G01X5102860Y2054860D02*
Y2024380D01*
G01Y1988820D02*
Y1978660D01*
G01Y1938020D02*
Y1907540D01*
G01Y1866900D02*
Y1856740D01*
G01X5107940Y2054860D02*
Y2024380D01*
G01Y1993900D02*
Y1973580D01*
G01Y1938020D02*
Y1907540D01*
G01Y1871980D02*
Y1856740D01*
G01X5113020Y2054860D02*
Y2029460D01*
G01Y1998980D02*
Y1973580D01*
G01Y1938020D02*
Y1907540D01*
G01Y1877060D02*
Y1851660D01*
G01X5118100Y2059940D02*
Y2029460D01*
G01Y2004060D02*
Y1968500D01*
G01Y1938020D02*
Y1907540D01*
G01Y1882140D02*
Y1841500D01*
G01X5123180Y2059940D02*
Y2029460D01*
G01Y2009140D02*
Y1968500D01*
G01Y1938020D02*
Y1907540D01*
G01Y1887220D02*
Y1836420D01*
G01X5128260Y2059940D02*
Y2024380D01*
G01Y2004060D02*
Y1968500D01*
G01Y1938020D02*
Y1907540D01*
G01Y1882140D02*
Y1841500D01*
G01X5133340Y2065020D02*
Y2024380D01*
G01Y1998980D02*
Y1968500D01*
G01Y1938020D02*
Y1907540D01*
G01Y1877060D02*
Y1846580D01*
G01X5138420Y2065020D02*
Y2024380D01*
G01Y1998980D02*
Y1968500D01*
G01Y1938020D02*
Y1907540D01*
G01Y1877060D02*
Y1846580D01*
G01X5143500Y2065020D02*
Y2024380D01*
G01Y1998980D02*
Y1968500D01*
G01Y1938020D02*
Y1907540D01*
G01Y1877060D02*
Y1846580D01*
G01X5148580Y2070100D02*
Y2024380D01*
G01Y1998980D02*
Y1968500D01*
G01Y1938020D02*
Y1907540D01*
G01Y1877060D02*
Y1846580D01*
G01X5153660Y2070100D02*
Y2024380D01*
G01Y1998980D02*
Y1968500D01*
G01Y1938020D02*
Y1907540D01*
G01Y1877060D02*
Y1846580D01*
G01X5158740Y2075180D02*
Y2024380D01*
G01Y1998980D02*
Y1968500D01*
G01Y1938020D02*
Y1907540D01*
G01Y1877060D02*
Y1846580D01*
G01X5163820Y2075180D02*
Y2059940D01*
G01Y2054860D02*
Y2024380D01*
G01Y1998980D02*
Y1968500D01*
G01Y1938020D02*
Y1907540D01*
G01Y1877060D02*
Y1846580D01*
G01X5168900Y2080260D02*
Y2065020D01*
G01Y2054860D02*
Y2024380D01*
G01Y1998980D02*
Y1968500D01*
G01Y1938020D02*
Y1907540D01*
G01Y1877060D02*
Y1846580D01*
G01X5173980Y2080260D02*
Y2070100D01*
G01Y2054860D02*
Y2024380D01*
G01Y1998980D02*
Y1968500D01*
G01Y1938020D02*
Y1907540D01*
G01Y1877060D02*
Y1846580D01*
G01X5179060Y2085340D02*
Y2075180D01*
G01Y2054860D02*
Y2024380D01*
G01Y1998980D02*
Y1968500D01*
G01Y1938020D02*
Y1907540D01*
G01Y1877060D02*
Y1846580D01*
G01X5184140Y2090420D02*
Y2085340D01*
G01Y2054860D02*
Y2024380D01*
G01Y1998980D02*
Y1968500D01*
G01Y1938020D02*
Y1907540D01*
G01Y1877060D02*
Y1846580D01*
G01X5189220Y2054860D02*
Y2024380D01*
G01Y1998980D02*
Y1968500D01*
G01Y1938020D02*
Y1907540D01*
G01Y1877060D02*
Y1846580D01*
G01X5194300Y2054860D02*
Y2024380D01*
G01Y1998980D02*
Y1968500D01*
G01Y1938020D02*
Y1907540D01*
G01Y1877060D02*
Y1846580D01*
G01X5199380Y2054860D02*
Y2024380D01*
G01Y1998980D02*
Y1968500D01*
G01Y1938020D02*
Y1907540D01*
G01Y1877060D02*
Y1846580D01*
G01X5204460Y2054860D02*
Y2024380D01*
G01Y1998980D02*
Y1968500D01*
G01Y1938020D02*
Y1907540D01*
G01Y1877060D02*
Y1846580D01*
G01X5209540Y2054860D02*
Y2024380D01*
G01Y1998980D02*
Y1968500D01*
G01Y1938020D02*
Y1907540D01*
G01Y1877060D02*
Y1846580D01*
G01X5214620Y2054860D02*
Y2024380D01*
G01Y1998980D02*
Y1968500D01*
G01Y1938020D02*
Y1907540D01*
G01Y1877060D02*
Y1846580D01*
G01X5219700Y2054860D02*
Y2024380D01*
G01Y1998980D02*
Y1968500D01*
G01Y1938020D02*
Y1907540D01*
G01Y1877060D02*
Y1846580D01*
G01X5224780Y2054860D02*
Y2024380D01*
G01Y1998980D02*
Y1968500D01*
G01Y1938020D02*
Y1907540D01*
G01Y1877060D02*
Y1846580D01*
G01X5229860Y2054860D02*
Y2024380D01*
G01Y1998980D02*
Y1968500D01*
G01Y1938020D02*
Y1907540D01*
G01Y1877060D02*
Y1846580D01*
G01X5234940Y2054860D02*
Y2024380D01*
G01Y1998980D02*
Y1968500D01*
G01Y1938020D02*
Y1907540D01*
G01Y1877060D02*
Y1846580D01*
G01X5240020Y2054860D02*
Y2024380D01*
G01Y1998980D02*
Y1968500D01*
G01Y1938020D02*
Y1907540D01*
G01Y1877060D02*
Y1846580D01*
G01X5245100Y2054860D02*
Y2024380D01*
G01Y1998980D02*
Y1968500D01*
G01Y1938020D02*
Y1907540D01*
G01Y1877060D02*
Y1846580D01*
G01X5250180Y2054860D02*
Y2024380D01*
G01Y1998980D02*
Y1968500D01*
G01Y1938020D02*
Y1907540D01*
G01Y1877060D02*
Y1846580D01*
G01Y1734820D02*
Y1714500D01*
G01X5255260Y2054860D02*
Y2024380D01*
G01Y1998980D02*
Y1968500D01*
G01Y1938020D02*
Y1907540D01*
G01Y1877060D02*
Y1846580D01*
G01Y1739900D02*
Y1719580D01*
G01X5260340Y2054860D02*
Y2024380D01*
G01Y1998980D02*
Y1963420D01*
G01Y1938020D02*
Y1907540D01*
G01Y1877060D02*
Y1846580D01*
G01Y1744980D02*
Y1724660D01*
G01X5265420Y2054860D02*
Y2024380D01*
G01Y2004060D02*
Y1963420D01*
G01Y1938020D02*
Y1907540D01*
G01Y1877060D02*
Y1841500D01*
G01Y1750060D02*
Y1729740D01*
G01X5270500Y2054860D02*
Y2024380D01*
G01Y2004060D02*
Y1963420D01*
G01Y1877060D02*
Y1836420D01*
G01Y1755140D02*
Y1739900D01*
G01X5275580Y2054860D02*
Y2024380D01*
G01Y1993900D02*
Y1968500D01*
G01Y1877060D02*
Y1841500D01*
G01Y1765300D02*
Y1750060D01*
G01X5280660Y2049780D02*
Y2029460D01*
G01Y1988820D02*
Y1973580D01*
G01Y1877060D02*
Y1846580D01*
G01Y1770380D02*
Y1760220D01*
G01X5285740Y2044700D02*
Y2029460D01*
G01Y1983740D02*
Y1978660D01*
G01Y1871980D02*
Y1851660D01*
G01Y1775460D02*
Y1770380D01*
G01X5290820Y2044700D02*
Y2034540D01*
G01Y1866900D02*
Y1856740D01*
G01X5295900Y2044700D02*
Y2034540D01*
G54D12*
G01X406570Y389680D02*
X412410Y393620D01*
X419230Y396240D01*
X427020D01*
X435780Y392300D01*
X442590Y385740D01*
X447460Y377870D01*
X451360Y364740D01*
X452330Y352930D01*
X450380Y341120D01*
X447460Y333250D01*
X441620Y325370D01*
X434810Y320120D01*
X427990Y317500D01*
X421170D01*
X414360Y320120D01*
X408520Y324060D01*
X403650Y329310D01*
G01X349250Y317500D02*
Y396240D01*
X360930Y380490D01*
G01Y317500D02*
X337570D01*
G01X291930Y329310D02*
X286090Y322750D01*
X279270Y318810D01*
X270510Y317500D01*
X261750Y320120D01*
X254930Y325370D01*
X250060Y334560D01*
X249090Y345060D01*
X251040Y355560D01*
X255910Y362120D01*
X262720Y367370D01*
X269540Y368680D01*
X276350Y367370D01*
X285110Y362120D01*
X282190Y396240D01*
X255910D01*
G01X406570Y2734100D02*
X412410Y2738040D01*
X419230Y2740660D01*
X427020D01*
X435780Y2736720D01*
X442590Y2730160D01*
X447460Y2722290D01*
X451360Y2709160D01*
X452330Y2697350D01*
X450380Y2685540D01*
X447460Y2677670D01*
X441620Y2669790D01*
X434810Y2664540D01*
X427990Y2661920D01*
X421170D01*
X414360Y2664540D01*
X408520Y2668480D01*
X403650Y2673730D01*
G01X349250Y2661920D02*
Y2740660D01*
X360930Y2724910D01*
G01Y2661920D02*
X337570D01*
G01X291930Y2677670D02*
X286090Y2668480D01*
X278300Y2663230D01*
X269540Y2661920D01*
X261750Y2663230D01*
X253960Y2669790D01*
X249090Y2677670D01*
X248120Y2685540D01*
X250060Y2694730D01*
X256880Y2701290D01*
X263690Y2703920D01*
X272460D01*
G01X263690D02*
X257850Y2707850D01*
X252980Y2714410D01*
X251040Y2722290D01*
X252980Y2730160D01*
X257850Y2736720D01*
X266620Y2740660D01*
X275380Y2739350D01*
X284140Y2734100D01*
G01X919650Y803700D02*
X925490Y807640D01*
X932310Y810260D01*
X940100D01*
X948860Y806320D01*
X955670Y799760D01*
X960540Y791890D01*
X964440Y778760D01*
X965410Y766950D01*
X963460Y755140D01*
X960540Y747270D01*
X954700Y739390D01*
X947890Y734140D01*
X941070Y731520D01*
X934250D01*
X927440Y734140D01*
X921600Y738080D01*
X916730Y743330D01*
G01X862330Y731520D02*
Y810260D01*
X874010Y794510D01*
G01Y731520D02*
X850650D01*
G01X771910D02*
Y810260D01*
X807930Y753830D01*
X759250D01*
G01X866310Y2274360D02*
X872150Y2278300D01*
X878970Y2280920D01*
X886760D01*
X895520Y2276980D01*
X902330Y2270420D01*
X907200Y2262550D01*
X911100Y2249420D01*
X912070Y2237610D01*
X910120Y2225800D01*
X907200Y2217930D01*
X901360Y2210050D01*
X894550Y2204800D01*
X887730Y2202180D01*
X880910D01*
X874100Y2204800D01*
X868260Y2208740D01*
X863390Y2213990D01*
G01X808990Y2202180D02*
Y2280920D01*
X820670Y2265170D01*
G01Y2202180D02*
X797310D01*
G01X748750Y2267800D02*
X742910Y2275670D01*
X736090Y2279610D01*
X728300Y2280920D01*
X718570Y2278300D01*
X711750Y2271730D01*
X709800Y2263860D01*
X710780Y2255980D01*
X714670Y2249420D01*
X734140Y2236300D01*
X742910Y2227110D01*
X748750Y2213990D01*
X750700Y2202180D01*
X709800D01*
G01X1928890Y1768510D02*
X1924730Y1768840D01*
X1919550Y1771140D01*
X1913360Y1775420D01*
X1909830Y1780870D01*
X1908750Y1785780D01*
X1909850Y1791380D01*
X1922790Y1804310D01*
X1967690Y1759410D01*
X1951880Y1743600D01*
X1945540Y1743240D01*
X1939130Y1745820D01*
X1932930Y1750100D01*
X1928650Y1756290D01*
X1927040Y1763660D01*
X1928890Y1768510D01*
X1943740Y1783350D01*
G01X1917160Y1708880D02*
X1920250Y1713460D01*
X1920600Y1719810D01*
X1918990Y1727170D01*
X1915670Y1734330D01*
X1910640Y1741270D01*
X1904650Y1747260D01*
X1897700Y1752290D01*
X1890550Y1755610D01*
X1883190Y1757220D01*
X1876840Y1756870D01*
X1872260Y1753780D01*
X1869180Y1749200D01*
X1868820Y1742860D01*
X1870430Y1735490D01*
X1873760Y1728340D01*
X1878790Y1721390D01*
X1884770Y1715410D01*
X1891720Y1710380D01*
X1898870Y1707060D01*
X1906240Y1705440D01*
X1912580Y1705800D01*
X1917160Y1708880D01*
G01X1877650Y1669370D02*
X1880740Y1673950D01*
X1881090Y1680300D01*
X1879480Y1687660D01*
X1876160Y1694820D01*
X1871130Y1701760D01*
X1865140Y1707750D01*
X1858190Y1712780D01*
X1851040Y1716100D01*
X1843680Y1717710D01*
X1837330Y1717360D01*
X1832750Y1714270D01*
X1829670Y1709690D01*
X1829310Y1703350D01*
X1830920Y1695980D01*
X1834250Y1688830D01*
X1839280Y1681880D01*
X1845260Y1675900D01*
X1852210Y1670870D01*
X1859360Y1667550D01*
X1866730Y1665930D01*
X1873070Y1666290D01*
X1877650Y1669370D01*
G01X1793240Y1674760D02*
X1838140Y1629860D01*
G01X1804260Y1685780D02*
X1782220Y1663750D01*
G01X1798630Y1590350D02*
X1753730Y1635250D01*
X1768460Y1632020D01*
G01X1804380Y1596100D02*
X1792890Y1584610D01*
G01X1823720Y1267630D02*
X1767290D01*
X1755480Y1271520D01*
X1747600Y1279310D01*
X1744980Y1289050D01*
X1747600Y1298790D01*
X1755480Y1306580D01*
X1767290Y1310470D01*
X1823720D01*
G01X1810600Y1349290D02*
X1818470Y1355130D01*
X1822410Y1361950D01*
X1823720Y1369740D01*
X1821100Y1379470D01*
X1814530Y1386290D01*
X1806660Y1388240D01*
X1798780Y1387260D01*
X1792220Y1383370D01*
X1779100Y1363900D01*
X1769910Y1355130D01*
X1756790Y1349290D01*
X1744980Y1347340D01*
Y1388240D01*
G01X1928890Y2439070D02*
X1924730Y2439400D01*
X1919550Y2441700D01*
X1913360Y2445980D01*
X1909830Y2451430D01*
X1908750Y2456340D01*
X1909850Y2461940D01*
X1922790Y2474870D01*
X1967690Y2429970D01*
X1951880Y2414160D01*
X1945540Y2413800D01*
X1939130Y2416380D01*
X1932930Y2420660D01*
X1928650Y2426850D01*
X1927040Y2434220D01*
X1928890Y2439070D01*
X1943740Y2453910D01*
G01X1917160Y2379440D02*
X1920250Y2384020D01*
X1920600Y2390370D01*
X1918990Y2397730D01*
X1915670Y2404890D01*
X1910640Y2411830D01*
X1904650Y2417820D01*
X1897700Y2422850D01*
X1890550Y2426170D01*
X1883190Y2427780D01*
X1876840Y2427430D01*
X1872260Y2424340D01*
X1869180Y2419760D01*
X1868820Y2413420D01*
X1870430Y2406050D01*
X1873760Y2398900D01*
X1878790Y2391950D01*
X1884770Y2385970D01*
X1891720Y2380940D01*
X1898870Y2377620D01*
X1906240Y2376000D01*
X1912580Y2376360D01*
X1917160Y2379440D01*
G01X1877650Y2339930D02*
X1880740Y2344510D01*
X1881090Y2350860D01*
X1879480Y2358220D01*
X1876160Y2365380D01*
X1871130Y2372320D01*
X1865140Y2378310D01*
X1858190Y2383340D01*
X1851040Y2386660D01*
X1843680Y2388270D01*
X1837330Y2387920D01*
X1832750Y2384830D01*
X1829670Y2380250D01*
X1829310Y2373910D01*
X1830920Y2366540D01*
X1834250Y2359390D01*
X1839280Y2352440D01*
X1845260Y2346460D01*
X1852210Y2341430D01*
X1859360Y2338110D01*
X1866730Y2336490D01*
X1873070Y2336850D01*
X1877650Y2339930D01*
G01X1793240Y2345320D02*
X1838140Y2300420D01*
G01X1804260Y2356340D02*
X1782220Y2334310D01*
G01X1753730Y2305810D02*
X1759060Y2308150D01*
X1765670Y2307280D01*
X1772080Y2304710D01*
X1779500Y2300150D01*
X1786720Y2293900D01*
X1792970Y2286680D01*
X1797530Y2279260D01*
X1800100Y2272850D01*
X1800970Y2266240D01*
X1798630Y2260910D01*
X1793300Y2258580D01*
X1786690Y2259440D01*
X1780280Y2262020D01*
X1772860Y2266570D01*
X1765640Y2272820D01*
X1759390Y2280040D01*
X1754840Y2287460D01*
X1752260Y2293870D01*
X1751400Y2300490D01*
X1753730Y2305810D01*
G01X2543600Y703410D02*
X2547540Y697570D01*
X2550160Y690750D01*
Y682960D01*
X2546220Y674200D01*
X2539660Y667390D01*
X2531790Y662520D01*
X2518660Y658620D01*
X2506850Y657650D01*
X2495040Y659600D01*
X2487170Y662520D01*
X2479290Y668360D01*
X2474040Y675170D01*
X2471420Y681990D01*
Y688810D01*
X2474040Y695620D01*
X2477980Y701460D01*
X2483230Y706330D01*
G01X2471420Y760730D02*
X2550160D01*
X2534410Y749050D01*
G01X2471420D02*
Y772410D01*
G01Y839470D02*
X2550160D01*
X2534410Y827790D01*
G01X2471420D02*
Y851150D01*
G01X2692400Y736180D02*
X2771140D01*
Y760520D01*
X2767200Y768310D01*
X2761950Y773180D01*
X2751450Y775120D01*
X2740960Y773180D01*
X2734400Y767330D01*
X2730460Y760520D01*
Y736180D01*
G01Y760520D02*
X2692400Y775120D01*
G01Y834390D02*
X2771140D01*
X2755390Y822710D01*
G01X2692400D02*
Y846070D01*
G01X3002700Y2209800D02*
Y2288540D01*
X2978360D01*
X2970570Y2284600D01*
X2965700Y2279350D01*
X2963760Y2268850D01*
X2965700Y2258360D01*
X2971550Y2251800D01*
X2978360Y2247860D01*
X3002700D01*
G01X2978360D02*
X2963760Y2209800D01*
G01X2922990Y2275420D02*
X2917150Y2283290D01*
X2910330Y2287230D01*
X2902540Y2288540D01*
X2892810Y2285920D01*
X2885990Y2279350D01*
X2884040Y2271480D01*
X2885020Y2263600D01*
X2888910Y2257040D01*
X2908380Y2243920D01*
X2917150Y2234730D01*
X2922990Y2221610D01*
X2924940Y2209800D01*
X2884040D01*
G01X3007780Y2021840D02*
Y2100580D01*
X2983440D01*
X2975650Y2096640D01*
X2970780Y2091390D01*
X2968840Y2080890D01*
X2970780Y2070400D01*
X2976630Y2063840D01*
X2983440Y2059900D01*
X3007780D01*
G01X2983440D02*
X2968840Y2021840D01*
G01X2930990Y2037590D02*
X2925150Y2028400D01*
X2917360Y2023150D01*
X2908600Y2021840D01*
X2900810Y2023150D01*
X2893020Y2029710D01*
X2888150Y2037590D01*
X2887180Y2045460D01*
X2889120Y2054650D01*
X2895940Y2061210D01*
X2902750Y2063840D01*
X2911520D01*
G01X2902750D02*
X2896910Y2067770D01*
X2892040Y2074330D01*
X2890100Y2082210D01*
X2892040Y2090080D01*
X2896910Y2096640D01*
X2905680Y2100580D01*
X2914440Y2099270D01*
X2923200Y2094020D01*
G01X3612050Y1385360D02*
X3617890Y1389300D01*
X3624710Y1391920D01*
X3632500D01*
X3641260Y1387980D01*
X3648070Y1381420D01*
X3652940Y1373550D01*
X3656840Y1360420D01*
X3657810Y1348610D01*
X3655860Y1336800D01*
X3652940Y1328930D01*
X3647100Y1321050D01*
X3640290Y1315800D01*
X3633470Y1313180D01*
X3626650D01*
X3619840Y1315800D01*
X3614000Y1319740D01*
X3609130Y1324990D01*
G01X3576150D02*
X3570310Y1318430D01*
X3563490Y1314490D01*
X3554730Y1313180D01*
X3545970Y1315800D01*
X3539150Y1321050D01*
X3534280Y1330240D01*
X3533310Y1340740D01*
X3535260Y1351240D01*
X3540130Y1357800D01*
X3546940Y1363050D01*
X3553760Y1364360D01*
X3560570Y1363050D01*
X3569330Y1357800D01*
X3566410Y1391920D01*
X3540130D01*
G01X3612050Y1545380D02*
X3617890Y1549320D01*
X3624710Y1551940D01*
X3632500D01*
X3641260Y1548000D01*
X3648070Y1541440D01*
X3652940Y1533570D01*
X3656840Y1520440D01*
X3657810Y1508630D01*
X3655860Y1496820D01*
X3652940Y1488950D01*
X3647100Y1481070D01*
X3640290Y1475820D01*
X3633470Y1473200D01*
X3626650D01*
X3619840Y1475820D01*
X3614000Y1479760D01*
X3609130Y1485010D01*
G01X3573230Y1506010D02*
X3566410Y1515200D01*
X3560570Y1520440D01*
X3552780Y1523070D01*
X3545970Y1520440D01*
X3541100Y1515200D01*
X3537200Y1507320D01*
X3536230Y1498130D01*
X3537200Y1490260D01*
X3541100Y1482380D01*
X3546940Y1475820D01*
X3553760Y1473200D01*
X3561550Y1475820D01*
X3568360Y1483700D01*
X3572260Y1495510D01*
X3573230Y1508630D01*
X3571280Y1525690D01*
X3568360Y1534880D01*
X3563490Y1544070D01*
X3556680Y1550630D01*
X3549860Y1551940D01*
X3543050Y1549320D01*
X3538180Y1542750D01*
G01X3650400Y1714500D02*
Y1635760D01*
X3611460D01*
G01X3552190D02*
Y1714500D01*
X3563870Y1698750D01*
G01Y1635760D02*
X3540510D01*
G01X6433650Y1092710D02*
X6427810Y1083520D01*
X6420020Y1078270D01*
X6411260Y1076960D01*
X6403470Y1078270D01*
X6395680Y1084830D01*
X6390810Y1092710D01*
X6389840Y1100580D01*
X6391780Y1109770D01*
X6398600Y1116330D01*
X6405410Y1118960D01*
X6414180D01*
G01X6405410D02*
X6399570Y1122890D01*
X6394700Y1129450D01*
X6392760Y1137330D01*
X6394700Y1145200D01*
X6399570Y1151760D01*
X6408340Y1155700D01*
X6417100Y1154390D01*
X6425860Y1149140D01*
G01X6357830Y1155700D02*
X6333490Y1076960D01*
X6309150Y1155700D01*
G01X6276170Y1092710D02*
X6270330Y1083520D01*
X6262540Y1078270D01*
X6253780Y1076960D01*
X6245990Y1078270D01*
X6238200Y1084830D01*
X6233330Y1092710D01*
X6232360Y1100580D01*
X6234300Y1109770D01*
X6241120Y1116330D01*
X6247930Y1118960D01*
X6256700D01*
G01X6247930D02*
X6242090Y1122890D01*
X6237220Y1129450D01*
X6235280Y1137330D01*
X6237220Y1145200D01*
X6242090Y1151760D01*
X6250860Y1155700D01*
X6259620Y1154390D01*
X6268380Y1149140D01*
G01X6431110Y1584960D02*
Y1663700D01*
X6411640D01*
X6403850Y1659760D01*
X6398010Y1654510D01*
X6393140Y1646640D01*
X6389240Y1637450D01*
X6388270Y1624330D01*
X6389240Y1611210D01*
X6393140Y1602020D01*
X6398010Y1594140D01*
X6403850Y1588900D01*
X6411640Y1584960D01*
X6431110D01*
G01X6342630Y1663700D02*
X6319270D01*
G01X6330950D02*
Y1584960D01*
G01X6342630D02*
X6319270D01*
G01X6252210D02*
X6260000Y1586270D01*
X6266810Y1591520D01*
X6272660Y1599390D01*
X6276550Y1608580D01*
X6278500Y1619080D01*
Y1629580D01*
X6276550Y1640080D01*
X6272660Y1649270D01*
X6266810Y1657140D01*
X6260000Y1662390D01*
X6252210Y1663700D01*
X6244420Y1662390D01*
X6237610Y1657140D01*
X6231760Y1649270D01*
X6227870Y1640080D01*
X6225920Y1629580D01*
Y1619080D01*
X6227870Y1608580D01*
X6231760Y1599390D01*
X6237610Y1591520D01*
X6244420Y1586270D01*
X6252210Y1584960D01*
G01X6401310Y1370330D02*
X6381830D01*
Y1346710D01*
X6387680Y1338830D01*
X6394490Y1333580D01*
X6404230Y1330960D01*
X6413970Y1333580D01*
X6420780Y1338830D01*
X6426620Y1346710D01*
X6430520Y1355890D01*
X6432470Y1366390D01*
Y1375580D01*
X6430520Y1383450D01*
X6426620Y1392640D01*
X6420780Y1400510D01*
X6414940Y1405760D01*
X6407150Y1409700D01*
X6400330D01*
X6392550Y1407080D01*
X6386700Y1401830D01*
G01X6350800Y1330960D02*
Y1409700D01*
X6306020Y1330960D01*
Y1409700D01*
G01X6271090Y1330960D02*
Y1409700D01*
X6251620D01*
X6243830Y1405760D01*
X6237990Y1400510D01*
X6233120Y1392640D01*
X6229220Y1383450D01*
X6228250Y1370330D01*
X6229220Y1357210D01*
X6233120Y1348020D01*
X6237990Y1340140D01*
X6243830Y1334900D01*
X6251620Y1330960D01*
X6271090D01*
G01X6393350Y1911140D02*
X6399190Y1915080D01*
X6406010Y1917700D01*
X6413800D01*
X6422560Y1913760D01*
X6429370Y1907200D01*
X6434240Y1899330D01*
X6438140Y1886200D01*
X6439110Y1874390D01*
X6437160Y1862580D01*
X6434240Y1854710D01*
X6428400Y1846830D01*
X6421590Y1841580D01*
X6414770Y1838960D01*
X6407950D01*
X6401140Y1841580D01*
X6395300Y1845520D01*
X6390430Y1850770D01*
G01X6355500Y1917700D02*
Y1838960D01*
X6316560D01*
G01X6278710D02*
Y1917700D01*
G01X6241710D02*
X6278710Y1869140D01*
G01X6235870Y1838960D02*
X6262160Y1891450D01*
M02*
