G04 ================== begin FILE IDENTIFICATION RECORD ==================*
G04 Layout Name:  E:/Projects/XRBB/SC-STM/BoardV2/SC-STM.brd*
G04 Film Name:    SOLDERMASK_TOP*
G04 File Format:  Gerber RS274X*
G04 File Origin:  Cadence Allegro 17.2-S026*
G04 Origin Date:  Mon Jul 22 20:40:11 2019*
G04 *
G04 Layer:  PIN/SOLDERMASK_TOP*
G04 Layer:  PACKAGE GEOMETRY/SOLDERMASK_TOP*
G04 Layer:  BOARD GEOMETRY/OUTLINE*
G04 Layer:  BOARD GEOMETRY/SOLDERMASK_TOP*
G04 *
G04 Offset:    (0.0000 0.0000)*
G04 Mirror:    No*
G04 Mode:      Positive*
G04 Rotation:  0*
G04 FullContactRelief:  No*
G04 UndefLineWidth:     0.1270*
G04 ================== end FILE IDENTIFICATION RECORD ====================*
%FSLAX25Y25*MOMM*%
%IR0*IPPOS*OFA0.00000B0.00000*MIA0B0*SFA1.00000B1.00000*%
%ADD12O,2.1001X.5001*%
%ADD16R,1.8999X1.1999*%
%ADD19O,1.5001X.4501*%
%ADD20O,.4501X1.5001*%
%ADD17R,1.X1.1001*%
%ADD14R,1.1001X1.*%
%ADD21R,2.X1.4*%
%ADD10O,2.1001X1.1501*%
%ADD11O,1.7X1.1501*%
%ADD15R,1.8999X2.*%
%ADD22R,5.4X1.5999*%
%ADD13C,1.5999*%
%ADD18R,1.5999X1.5999*%
%ADD23C,.1*%
G75*
%LPD*%
G75*
G54D10*
X210000Y1140000D03*
Y1860000D03*
G54D11*
X555000Y1140000D03*
Y1860000D03*
G54D20*
X3525000Y1065000D03*
X3475000D03*
X3425000D03*
X3375000D03*
X3325000D03*
X3275000D03*
X3225000D03*
X3175000D03*
X3125000D03*
X3075000D03*
X3025000D03*
X2975000D03*
Y1935000D03*
X3025000D03*
X3075000D03*
X3125000D03*
X3175000D03*
X3225000D03*
X3275000D03*
X3325000D03*
X3375000D03*
X3425000D03*
X3475000D03*
X3525000D03*
G54D21*
X4155460Y766400D03*
Y1316400D03*
X4475460Y766400D03*
Y1316400D03*
G54D12*
X565000Y1370000D03*
Y1435000D03*
Y1500000D03*
Y1565000D03*
Y1630000D03*
G54D13*
X1091000Y357000D03*
X837000D03*
X1091000Y2643000D03*
X837000D03*
X1599000Y357000D03*
X1345000D03*
X1600200Y1920240D03*
Y2174240D03*
X1599000Y2643000D03*
X1345000D03*
X2361000Y357000D03*
X2107000D03*
X1853000D03*
X1854200Y1920240D03*
Y2174240D03*
X2108200Y1920240D03*
X2361000Y2643000D03*
X2107000D03*
X1853000D03*
X2869000Y357000D03*
X2615000D03*
X2869000Y2643000D03*
X2615000D03*
X3377000Y357000D03*
X3123000D03*
X3377000Y2643000D03*
X3123000D03*
X4139000Y357000D03*
X3885000D03*
X3631000D03*
X4139000Y2643000D03*
X3885000D03*
X3631000D03*
X4647000Y357000D03*
X4393000D03*
X4647000Y2643000D03*
X4393000D03*
X5409000Y357000D03*
X5155000D03*
X4901000D03*
X5409000Y2643000D03*
X5155000D03*
X4901000D03*
X5663000Y357000D03*
Y2643000D03*
X6100000Y1627000D03*
Y1373000D03*
Y1881000D03*
G54D22*
X4332820Y1785620D03*
X5232820D03*
G54D23*
G01X300000Y0D02*
X6200000D01*
G03X6500000Y300000I0J300000D01*
G01Y2700000D01*
G03X6200000Y3000000I-300000J0D01*
G01X300000D01*
G03X0Y2700000I0J-300000D01*
G01Y300000D01*
G03X300000Y0I300000J0D01*
G54D14*
X1010000Y1600000D03*
Y1440000D03*
Y1280000D03*
X1190000Y1600000D03*
Y1440000D03*
Y1280000D03*
X2795440Y2153920D03*
X2975440D03*
X4504860Y2166620D03*
X4684860D03*
X4810000Y1140000D03*
X4990000D03*
X4810000Y820000D03*
X4990000D03*
X4810000Y980000D03*
X4990000D03*
X4810000Y1300000D03*
X4990000D03*
X5111580Y2166620D03*
X4931580D03*
G54D15*
X965200Y1864320D03*
Y2240320D03*
G54D16*
X1582300Y1132420D03*
Y762420D03*
X2202300Y1132420D03*
Y762420D03*
G54D17*
X1252220Y1896280D03*
Y2076280D03*
X2580640Y1022520D03*
Y1202520D03*
X3878580Y885020D03*
Y705020D03*
X3624580Y885020D03*
Y705020D03*
X5400000Y970000D03*
Y790000D03*
Y1130000D03*
Y1310000D03*
X5800000Y1590000D03*
Y1410000D03*
Y1910000D03*
Y2090000D03*
G54D18*
X2108200Y2174240D03*
X6100000Y1119000D03*
G54D19*
X2815000Y1225000D03*
Y1275000D03*
Y1325000D03*
Y1375000D03*
Y1425000D03*
Y1475000D03*
Y1525000D03*
Y1575000D03*
Y1625000D03*
Y1675000D03*
Y1725000D03*
Y1775000D03*
X3685000Y1675000D03*
Y1625000D03*
Y1575000D03*
Y1525000D03*
Y1475000D03*
Y1425000D03*
Y1375000D03*
Y1325000D03*
Y1275000D03*
Y1225000D03*
Y1775000D03*
Y1725000D03*
M02*
